<svg xmlns="http://www.w3.org/2000/svg" xmlns:xlink="http://www.w3.org/1999/xlink" width="80" zoomAndPan="magnify" viewBox="0 0 60 60" height="80" preserveAspectRatio="xMidYMid meet" version="1.0"><defs><clipPath id="cb67ffa473"><path d="M 8.726562 11 L 51.476562 11 L 51.476562 60 L 8.726562 60 Z M 8.726562 11 " clip-rule="nonzero"/></clipPath></defs><g clip-path="url(#cb67ffa473)"><path fill="#737373" d="M 51.460938 11.792969 L 47.570312 55.175781 L 30.074219 60 L 12.628906 55.179688 L 8.742188 11.792969 Z M 51.460938 11.792969 " fill-opacity="1" fill-rule="nonzero"/></g><path fill="#a6a6a6" d="M 44.238281 52.410156 L 47.5625 15.339844 L 30.101562 15.339844 L 30.101562 56.3125 Z M 44.238281 52.410156 " fill-opacity="1" fill-rule="nonzero"/><path fill="#ebebeb" d="M 17.65625 31.433594 L 18.132812 36.753906 L 30.101562 36.753906 L 30.101562 31.433594 Z M 17.65625 31.433594 " fill-opacity="1" fill-rule="nonzero"/><path fill="#ebebeb" d="M 30.101562 20.660156 L 16.691406 20.660156 L 17.179688 25.980469 L 30.101562 25.980469 Z M 30.101562 20.660156 " fill-opacity="1" fill-rule="nonzero"/><path fill="#ebebeb" d="M 30.101562 50.789062 L 30.101562 45.253906 L 30.078125 45.257812 L 24.121094 43.65625 L 23.742188 39.414062 L 18.375 39.414062 L 19.121094 47.769531 L 30.078125 50.796875 Z M 30.101562 50.789062 " fill-opacity="1" fill-rule="nonzero"/><path fill="#000000" d="M 18.796875 0 L 25.273438 0 L 25.273438 2.695312 L 21.503906 2.695312 L 21.503906 5.390625 L 25.273438 5.390625 L 25.273438 8.085938 L 18.796875 8.085938 Z M 18.796875 0 " fill-opacity="1" fill-rule="nonzero"/><path fill="#000000" d="M 26.570312 0 L 33.046875 0 L 33.046875 2.34375 L 29.277344 2.34375 L 29.277344 2.8125 L 33.046875 2.8125 L 33.046875 8.203125 L 26.570312 8.203125 L 26.570312 5.742188 L 30.335938 5.742188 L 30.335938 5.273438 L 26.570312 5.273438 Z M 26.570312 0 " fill-opacity="1" fill-rule="nonzero"/><path fill="#000000" d="M 34.34375 0 L 40.820312 0 L 40.820312 2.34375 L 37.050781 2.34375 L 37.050781 2.8125 L 40.820312 2.8125 L 40.820312 8.203125 L 34.34375 8.203125 L 34.34375 5.742188 L 38.109375 5.742188 L 38.109375 5.273438 L 34.34375 5.273438 Z M 34.34375 0 " fill-opacity="1" fill-rule="nonzero"/><path fill="#ffffff" d="M 36.667969 36.753906 L 36.046875 43.65625 L 30.082031 45.257812 L 30.082031 50.792969 L 41.046875 47.769531 L 41.128906 46.871094 L 42.382812 32.859375 L 42.515625 31.433594 L 43.480469 20.660156 L 30.082031 20.660156 L 30.082031 25.980469 L 37.621094 25.980469 L 37.132812 31.433594 L 30.082031 31.433594 L 30.082031 36.753906 Z M 36.667969 36.753906 " fill-opacity="1" fill-rule="nonzero"/></svg>