<svg xmlns="http://www.w3.org/2000/svg" xmlns:xlink="http://www.w3.org/1999/xlink" width="80" zoomAndPan="magnify" viewBox="0 0 60 60" height="80" preserveAspectRatio="xMidYMid meet" version="1.0"><path fill="#000000" d="M 23.707031 23.6875 L 23.707031 33.054688 L 24.910156 33.0625 L 24.910156 28.601562 L 27.820312 28.601562 L 27.820312 27.421875 L 24.910156 27.421875 L 24.910156 24.863281 L 28.691406 24.863281 L 28.691406 23.6875 Z M 30.863281 25.59375 C 31.296875 25.59375 31.65625 25.242188 31.65625 24.800781 C 31.65625 24.359375 31.308594 24.007812 30.863281 24.007812 C 30.433594 24.007812 30.074219 24.359375 30.074219 24.800781 C 30.074219 25.242188 30.421875 25.59375 30.863281 25.59375 Z M 30.25 26.769531 L 30.25 33.0625 L 31.453125 33.0625 L 31.453125 26.769531 Z M 35.925781 26.585938 C 34.324219 26.585938 33.210938 27.9375 33.210938 29.550781 C 33.210938 31.160156 34.324219 32.511719 35.925781 32.511719 C 36.664062 32.511719 37.261719 32.234375 37.703125 31.765625 L 37.703125 32.605469 C 37.710938 33.644531 36.882812 34.507812 35.835938 34.519531 C 35.824219 34.519531 35.824219 34.519531 35.816406 34.519531 C 35.429688 34.519531 35.050781 34.371094 34.75 34.160156 L 34.140625 35.207031 C 35.578125 36.136719 37.492188 35.722656 38.410156 34.289062 C 38.734375 33.78125 38.90625 33.203125 38.90625 32.605469 L 38.90625 26.777344 L 37.703125 26.777344 L 37.703125 27.339844 C 37.261719 26.871094 36.664062 26.585938 35.925781 26.585938 Z M 34.417969 29.550781 C 34.417969 28.546875 35.179688 27.765625 36.0625 27.765625 C 36.949219 27.765625 37.703125 28.554688 37.703125 29.550781 C 37.703125 30.550781 36.9375 31.324219 36.0625 31.324219 C 35.179688 31.324219 34.417969 30.542969 34.417969 29.550781 Z M 43.25 27.765625 C 42.535156 27.773438 41.953125 28.363281 41.964844 29.078125 L 41.964844 33.054688 L 40.757812 33.054688 L 40.757812 26.761719 L 41.964844 26.761719 L 41.964844 27.339844 C 42.332031 26.851562 42.902344 26.578125 43.519531 26.585938 C 44.363281 26.585938 45.019531 27 45.386719 27.644531 C 45.808594 26.992188 46.527344 26.59375 47.300781 26.585938 C 48.671875 26.585938 49.527344 27.691406 49.527344 29.0625 L 49.527344 33.054688 L 48.332031 33.054688 L 48.332031 29.078125 C 48.332031 28.363281 47.761719 27.773438 47.042969 27.765625 C 46.324219 27.773438 45.746094 28.363281 45.753906 29.078125 L 45.753906 33.054688 L 44.539062 33.054688 L 44.539062 29.078125 C 44.539062 28.363281 43.96875 27.773438 43.25 27.765625 Z M 55.949219 27.480469 C 55.398438 26.898438 54.625 26.578125 53.824219 26.585938 C 52.03125 26.585938 50.761719 28.105469 50.761719 29.90625 C 50.761719 31.722656 52.03125 33.230469 53.824219 33.230469 C 54.625 33.230469 55.390625 32.90625 55.949219 32.335938 L 55.949219 33.054688 L 57.15625 33.054688 L 57.15625 26.761719 L 55.949219 26.761719 Z M 51.964844 29.90625 C 51.964844 28.710938 52.886719 27.753906 53.964844 27.753906 C 55.03125 27.765625 55.949219 28.710938 55.949219 29.90625 C 55.949219 31.105469 55.03125 32.050781 53.953125 32.050781 C 52.894531 32.0625 51.964844 31.113281 51.964844 29.90625 Z M 51.964844 29.90625 " fill-opacity="1" fill-rule="nonzero"/><path fill="#1abcfe" d="M 8.136719 29.492188 C 8.136719 27.78125 9.523438 26.394531 11.234375 26.394531 C 12.949219 26.394531 14.335938 27.78125 14.335938 29.492188 C 14.335938 31.207031 12.949219 32.59375 11.234375 32.59375 C 9.523438 32.59375 8.136719 31.207031 8.136719 29.492188 Z M 8.136719 29.492188 " fill-opacity="1" fill-rule="nonzero"/><path fill="#0acf83" d="M 1.941406 35.6875 C 1.941406 33.976562 3.332031 32.585938 5.042969 32.585938 L 8.144531 32.585938 L 8.144531 35.6875 C 8.144531 37.398438 6.753906 38.789062 5.042969 38.789062 C 3.332031 38.789062 1.941406 37.398438 1.941406 35.6875 Z M 1.941406 35.6875 " fill-opacity="1" fill-rule="nonzero"/><path fill="#ff7262" d="M 8.136719 20.199219 L 8.136719 26.394531 L 11.234375 26.394531 C 12.949219 26.394531 14.335938 25.003906 14.335938 23.292969 C 14.335938 21.578125 12.949219 20.191406 11.234375 20.191406 L 8.136719 20.191406 Z M 8.136719 20.199219 " fill-opacity="1" fill-rule="nonzero"/><path fill="#f24e1e" d="M 1.941406 23.300781 C 1.941406 25.011719 3.332031 26.402344 5.042969 26.402344 L 8.144531 26.402344 L 8.144531 20.207031 L 5.042969 20.207031 C 3.332031 20.199219 1.941406 21.589844 1.941406 23.300781 Z M 1.941406 23.300781 " fill-opacity="1" fill-rule="nonzero"/><path fill="#a259ff" d="M 1.941406 29.492188 C 1.941406 31.207031 3.332031 32.59375 5.042969 32.59375 L 8.144531 32.59375 L 8.144531 26.402344 L 5.042969 26.402344 C 3.332031 26.394531 1.941406 27.78125 1.941406 29.492188 Z M 1.941406 29.492188 " fill-opacity="1" fill-rule="nonzero"/></svg>