<svg xmlns="http://www.w3.org/2000/svg" xmlns:xlink="http://www.w3.org/1999/xlink" width="40" zoomAndPan="magnify" viewBox="0 0 30 30.000001" height="40" preserveAspectRatio="xMidYMid meet" version="1.0"><defs><clipPath id="0d73957a9e"><path d="M 0.484375 0 L 29.515625 0 L 29.515625 29.03125 L 0.484375 29.03125 Z M 0.484375 0 " clip-rule="nonzero"/></clipPath></defs><g clip-path="url(#0d73957a9e)"><path fill="#16181a" d="M 4.839844 0 L 25.160156 0 C 25.445312 0 25.730469 0.0273438 26.011719 0.0820312 C 26.292969 0.140625 26.5625 0.222656 26.828125 0.332031 C 27.09375 0.441406 27.34375 0.574219 27.582031 0.734375 C 27.820312 0.894531 28.039062 1.074219 28.242188 1.277344 C 28.441406 1.476562 28.625 1.699219 28.78125 1.933594 C 28.941406 2.171875 29.074219 2.425781 29.183594 2.6875 C 29.292969 2.953125 29.375 3.226562 29.433594 3.503906 C 29.488281 3.785156 29.515625 4.070312 29.515625 4.355469 L 29.515625 24.675781 C 29.515625 24.964844 29.488281 25.246094 29.433594 25.527344 C 29.375 25.808594 29.292969 26.078125 29.183594 26.34375 C 29.074219 26.609375 28.941406 26.859375 28.78125 27.097656 C 28.625 27.335938 28.441406 27.554688 28.242188 27.757812 C 28.039062 27.957031 27.820312 28.140625 27.582031 28.296875 C 27.34375 28.457031 27.09375 28.589844 26.828125 28.699219 C 26.5625 28.808594 26.292969 28.894531 26.011719 28.949219 C 25.730469 29.003906 25.445312 29.03125 25.160156 29.03125 L 4.839844 29.03125 C 4.554688 29.03125 4.269531 29.003906 3.988281 28.949219 C 3.707031 28.894531 3.4375 28.808594 3.171875 28.699219 C 2.90625 28.589844 2.65625 28.457031 2.417969 28.296875 C 2.179688 28.140625 1.960938 27.957031 1.757812 27.757812 C 1.558594 27.554688 1.375 27.335938 1.21875 27.097656 C 1.058594 26.859375 0.925781 26.609375 0.816406 26.34375 C 0.707031 26.078125 0.625 25.808594 0.566406 25.527344 C 0.511719 25.246094 0.484375 24.964844 0.484375 24.675781 L 0.484375 4.355469 C 0.484375 4.070312 0.511719 3.785156 0.566406 3.503906 C 0.625 3.226562 0.707031 2.953125 0.816406 2.6875 C 0.925781 2.425781 1.058594 2.171875 1.21875 1.933594 C 1.375 1.699219 1.558594 1.476562 1.757812 1.277344 C 1.960938 1.074219 2.179688 0.894531 2.417969 0.734375 C 2.65625 0.574219 2.90625 0.441406 3.171875 0.332031 C 3.4375 0.222656 3.707031 0.140625 3.988281 0.0820312 C 4.269531 0.0273438 4.554688 0 4.839844 0 Z M 4.839844 0 " fill-opacity="1" fill-rule="nonzero"/></g><path fill="#ffffff" d="M 7.230469 14.460938 C 8.195312 16.160156 10.011719 17.179688 13.015625 17.464844 C 12.5625 17.804688 12.050781 18.429688 11.996094 19.164062 C 11.425781 19.507812 10.351562 19.621094 9.5 19.335938 C 8.308594 18.9375 7.855469 16.613281 6.039062 16.953125 C 5.644531 17.011719 5.699219 17.292969 6.039062 17.519531 C 6.609375 17.863281 7.230469 18.429688 7.515625 19.222656 C 8.195312 20.980469 9.613281 21.433594 11.882812 21.09375 L 11.882812 23.644531 C 11.882812 24.4375 10.746094 24.667969 10.746094 25.0625 C 10.746094 25.234375 11.144531 25.234375 11.425781 25.234375 C 11.996094 25.234375 13.242188 24.722656 13.242188 23.929688 C 13.242188 23.25 13.242188 20.980469 13.300781 20.582031 C 13.300781 19.734375 13.753906 19.449219 13.753906 19.449219 C 13.753906 19.449219 13.808594 24.097656 13.640625 24.667969 C 13.414062 25.402344 13.070312 25.289062 13.070312 25.628906 C 13.070312 26.140625 14.546875 25.742188 15.058594 24.667969 C 15.453125 23.816406 15.285156 19.277344 15.226562 19.335938 L 15.625 19.335938 C 15.625 19.335938 15.625 21.433594 15.679688 22.339844 C 15.679688 23.304688 15.625 24.550781 16.191406 25.175781 C 16.585938 25.574219 17.835938 26.253906 17.835938 25.628906 C 17.835938 25.289062 17.15625 24.949219 17.15625 23.984375 L 17.15625 19.507812 C 17.722656 19.507812 17.609375 20.980469 17.609375 20.980469 L 17.664062 23.703125 C 17.664062 23.703125 17.550781 24.722656 18.742188 25.121094 C 19.195312 25.289062 20.101562 25.289062 20.160156 25.0625 C 20.214844 24.835938 19.027344 24.4375 19.027344 23.644531 L 19.027344 20.867188 C 19.027344 18.824219 18.742188 18.089844 17.777344 17.464844 C 20.785156 17.179688 22.65625 16.445312 23.5625 14.460938 C 24.128906 13.324219 24.242188 11.964844 24.242188 10.945312 C 24.242188 8.109375 22.882812 7.144531 22.597656 6.632812 C 22.996094 4.480469 22.542969 3.515625 22.316406 3.230469 C 21.519531 2.949219 19.59375 3.914062 18.574219 4.59375 C 16.871094 4.082031 13.242188 4.140625 11.882812 4.707031 C 9.386719 2.949219 8.082031 3.230469 8.082031 3.230469 C 8.082031 3.230469 7.230469 4.761719 7.855469 6.972656 C 7.003906 7.996094 6.4375 8.730469 6.382812 10.660156 C 6.382812 12.191406 6.550781 13.15625 7.230469 14.460938 Z M 7.230469 14.460938 " fill-opacity="1" fill-rule="nonzero"/></svg>