<svg xmlns="http://www.w3.org/2000/svg" xmlns:xlink="http://www.w3.org/1999/xlink" width="80" zoomAndPan="magnify" viewBox="0 0 60 60" height="80" preserveAspectRatio="xMidYMid meet" version="1.0"><defs><clipPath id="6c5b47e5d2"><path d="M 0 21.328125 L 60 21.328125 L 60 38.578125 L 0 38.578125 Z M 0 21.328125 " clip-rule="nonzero"/></clipPath></defs><g clip-path="url(#6c5b47e5d2)"><path fill="#ff2d20" d="M 22.878906 25.292969 L 22.878906 33.054688 L 25.722656 33.054688 L 25.722656 34.394531 L 21.363281 34.394531 L 21.363281 25.292969 Z M 31.066406 29.152344 L 31.066406 28.335938 L 32.5 28.335938 L 32.5 34.394531 L 31.066406 34.394531 L 31.066406 33.574219 C 30.871094 33.875 30.597656 34.117188 30.242188 34.289062 C 29.886719 34.460938 29.53125 34.546875 29.171875 34.546875 C 28.703125 34.546875 28.277344 34.464844 27.894531 34.292969 C 27.511719 34.132812 27.183594 33.898438 26.898438 33.597656 C 26.621094 33.300781 26.40625 32.964844 26.253906 32.585938 C 26.097656 32.191406 26.019531 31.785156 26.023438 31.363281 C 26.023438 30.9375 26.101562 30.535156 26.253906 30.148438 C 26.402344 29.765625 26.617188 29.425781 26.898438 29.128906 C 27.183594 28.828125 27.511719 28.59375 27.894531 28.433594 C 28.277344 28.261719 28.703125 28.179688 29.171875 28.179688 C 29.53125 28.179688 29.886719 28.265625 30.242188 28.4375 C 30.597656 28.613281 30.871094 28.851562 31.066406 29.152344 Z M 30.933594 32.105469 C 31.023438 31.867188 31.066406 31.617188 31.066406 31.363281 C 31.066406 31.101562 31.023438 30.855469 30.933594 30.621094 C 30.851562 30.394531 30.726562 30.191406 30.566406 30.011719 C 30.402344 29.835938 30.210938 29.695312 29.992188 29.59375 C 29.769531 29.492188 29.519531 29.441406 29.25 29.441406 C 28.976562 29.441406 28.730469 29.492188 28.511719 29.59375 C 28.292969 29.699219 28.105469 29.839844 27.945312 30.011719 C 27.785156 30.191406 27.664062 30.394531 27.585938 30.621094 C 27.5 30.863281 27.457031 31.109375 27.457031 31.363281 C 27.457031 31.625 27.5 31.871094 27.585938 32.105469 C 27.664062 32.332031 27.785156 32.535156 27.945312 32.714844 C 28.105469 32.890625 28.296875 33.03125 28.511719 33.132812 C 28.730469 33.234375 28.976562 33.289062 29.25 33.289062 C 29.519531 33.289062 29.769531 33.234375 29.992188 33.132812 C 30.210938 33.03125 30.402344 32.894531 30.566406 32.714844 C 30.726562 32.535156 30.851562 32.332031 30.933594 32.105469 Z M 33.632812 34.390625 L 33.632812 28.335938 L 37.53125 28.335938 L 37.53125 29.730469 L 35.066406 29.730469 L 35.066406 34.390625 Z M 42.730469 29.152344 L 42.730469 28.335938 L 44.164062 28.335938 L 44.164062 34.394531 L 42.730469 34.394531 L 42.730469 33.574219 C 42.535156 33.875 42.261719 34.117188 41.90625 34.289062 C 41.550781 34.460938 41.195312 34.546875 40.835938 34.546875 C 40.367188 34.546875 39.941406 34.464844 39.558594 34.292969 C 39.175781 34.132812 38.847656 33.898438 38.5625 33.597656 C 38.285156 33.300781 38.070312 32.964844 37.917969 32.585938 C 37.761719 32.191406 37.683594 31.785156 37.6875 31.363281 C 37.6875 30.9375 37.765625 30.535156 37.917969 30.148438 C 38.066406 29.765625 38.28125 29.425781 38.5625 29.128906 C 38.847656 28.828125 39.175781 28.59375 39.558594 28.433594 C 39.941406 28.261719 40.367188 28.179688 40.835938 28.179688 C 41.195312 28.179688 41.550781 28.265625 41.90625 28.4375 C 42.261719 28.613281 42.535156 28.851562 42.730469 29.152344 Z M 42.597656 32.105469 C 42.6875 31.867188 42.730469 31.617188 42.730469 31.363281 C 42.730469 31.101562 42.683594 30.855469 42.597656 30.621094 C 42.515625 30.394531 42.390625 30.191406 42.230469 30.011719 C 42.066406 29.835938 41.875 29.695312 41.65625 29.59375 C 41.433594 29.492188 41.183594 29.441406 40.914062 29.441406 C 40.640625 29.441406 40.394531 29.492188 40.175781 29.59375 C 39.957031 29.699219 39.769531 29.839844 39.609375 30.011719 C 39.449219 30.191406 39.328125 30.394531 39.246094 30.621094 C 39.164062 30.863281 39.121094 31.109375 39.121094 31.363281 C 39.121094 31.625 39.164062 31.871094 39.246094 32.105469 C 39.328125 32.332031 39.449219 32.535156 39.609375 32.714844 C 39.769531 32.890625 39.960938 33.03125 40.175781 33.132812 C 40.394531 33.234375 40.640625 33.289062 40.914062 33.289062 C 41.183594 33.289062 41.433594 33.234375 41.65625 33.132812 C 41.875 33.03125 42.066406 32.894531 42.230469 32.714844 C 42.390625 32.535156 42.515625 32.332031 42.597656 32.105469 Z M 49.917969 28.335938 L 51.371094 28.335938 L 49.015625 34.390625 L 47.210938 34.390625 L 44.855469 28.335938 L 46.3125 28.335938 L 48.113281 32.972656 Z M 54.5 28.179688 C 56.453125 28.179688 57.785156 29.890625 57.535156 31.890625 L 52.777344 31.890625 C 52.777344 32.414062 53.308594 33.421875 54.578125 33.421875 C 55.671875 33.421875 56.402344 32.476562 56.402344 32.472656 L 57.371094 33.214844 C 56.503906 34.128906 55.796875 34.546875 54.683594 34.546875 C 52.699219 34.546875 51.351562 33.308594 51.351562 31.363281 C 51.351562 29.605469 52.742188 28.179688 54.5 28.179688 Z M 52.78125 30.835938 L 56.21875 30.835938 C 56.207031 30.71875 56.023438 29.304688 54.488281 29.304688 C 52.957031 29.304688 52.792969 30.71875 52.78125 30.835938 Z M 58.472656 34.390625 L 58.472656 25.292969 L 59.90625 25.292969 L 59.90625 34.390625 Z M 16.996094 25.222656 C 17.003906 25.246094 17.007812 25.269531 17.007812 25.292969 L 17.007812 28.988281 C 17.007812 29.089844 16.960938 29.167969 16.871094 29.21875 L 13.730469 31.007812 L 13.730469 34.542969 C 13.730469 34.648438 13.683594 34.726562 13.59375 34.777344 L 7.039062 38.503906 C 7.023438 38.515625 7.007812 38.519531 6.988281 38.523438 C 6.984375 38.527344 6.976562 38.53125 6.972656 38.53125 C 6.925781 38.542969 6.878906 38.542969 6.832031 38.53125 C 6.824219 38.53125 6.816406 38.527344 6.808594 38.523438 C 6.792969 38.519531 6.78125 38.511719 6.765625 38.503906 L 0.210938 34.777344 C 0.117188 34.726562 0.0742188 34.648438 0.0742188 34.542969 L 0.0742188 23.460938 C 0.0742188 23.4375 0.078125 23.414062 0.0820312 23.390625 C 0.0859375 23.382812 0.0898438 23.375 0.09375 23.367188 C 0.0976562 23.351562 0.101562 23.339844 0.109375 23.324219 C 0.117188 23.316406 0.121094 23.308594 0.128906 23.300781 C 0.136719 23.289062 0.144531 23.277344 0.152344 23.269531 C 0.160156 23.261719 0.171875 23.257812 0.179688 23.25 C 0.191406 23.242188 0.199219 23.234375 0.210938 23.226562 L 3.488281 21.363281 C 3.578125 21.3125 3.667969 21.3125 3.761719 21.363281 L 7.039062 23.226562 C 7.050781 23.234375 7.058594 23.242188 7.066406 23.25 C 7.078125 23.257812 7.085938 23.261719 7.09375 23.269531 C 7.105469 23.277344 7.109375 23.289062 7.121094 23.300781 C 7.125 23.308594 7.132812 23.316406 7.136719 23.324219 C 7.144531 23.339844 7.148438 23.351562 7.15625 23.367188 C 7.160156 23.375 7.164062 23.382812 7.164062 23.390625 C 7.171875 23.414062 7.175781 23.4375 7.175781 23.460938 L 7.175781 30.382812 L 9.90625 28.832031 L 9.90625 25.292969 C 9.90625 25.269531 9.910156 25.246094 9.914062 25.222656 C 9.917969 25.214844 9.921875 25.207031 9.925781 25.199219 C 9.929688 25.183594 9.933594 25.171875 9.941406 25.15625 C 9.945312 25.148438 9.953125 25.140625 9.960938 25.132812 C 9.96875 25.121094 9.976562 25.109375 9.984375 25.101562 C 9.992188 25.09375 10.003906 25.089844 10.011719 25.082031 C 10.023438 25.074219 10.03125 25.0625 10.042969 25.058594 L 13.320312 23.195312 C 13.410156 23.144531 13.5 23.144531 13.59375 23.195312 L 16.871094 25.058594 C 16.882812 25.066406 16.890625 25.074219 16.898438 25.082031 C 16.910156 25.085938 16.917969 25.09375 16.925781 25.101562 C 16.9375 25.109375 16.941406 25.121094 16.949219 25.132812 C 16.957031 25.140625 16.964844 25.148438 16.96875 25.15625 C 16.976562 25.171875 16.980469 25.183594 16.988281 25.199219 C 16.992188 25.207031 16.996094 25.214844 16.996094 25.222656 Z M 16.460938 28.832031 L 16.460938 25.757812 L 15.3125 26.410156 L 13.730469 27.3125 L 13.730469 30.382812 Z M 13.183594 34.390625 L 13.183594 31.3125 L 11.625 32.191406 L 7.175781 34.699219 L 7.175781 37.804688 L 13.183594 34.386719 Z M 0.621094 23.925781 L 0.621094 34.390625 L 6.628906 37.804688 L 6.628906 34.703125 L 3.488281 32.949219 L 3.488281 32.945312 C 3.476562 32.941406 3.46875 32.933594 3.457031 32.925781 C 3.449219 32.917969 3.441406 32.914062 3.433594 32.90625 L 3.429688 32.902344 C 3.421875 32.894531 3.417969 32.886719 3.410156 32.875 C 3.402344 32.867188 3.394531 32.859375 3.386719 32.847656 C 3.382812 32.839844 3.378906 32.824219 3.375 32.8125 C 3.371094 32.804688 3.363281 32.796875 3.359375 32.785156 C 3.355469 32.769531 3.355469 32.757812 3.355469 32.746094 C 3.355469 32.734375 3.351562 32.722656 3.351562 32.714844 L 3.351562 25.480469 L 1.765625 24.578125 Z M 3.625 21.90625 L 0.894531 23.460938 L 3.625 25.011719 L 6.355469 23.460938 Z M 5.042969 31.59375 L 6.628906 30.695312 L 6.628906 23.925781 L 5.480469 24.578125 L 3.898438 25.480469 L 3.898438 32.246094 Z M 13.457031 23.738281 L 10.726562 25.292969 L 13.457031 26.84375 L 16.1875 25.292969 Z M 13.183594 27.3125 L 11.597656 26.410156 L 10.453125 25.757812 L 10.453125 28.832031 L 12.035156 29.730469 L 13.183594 30.382812 Z M 6.902344 34.234375 L 10.90625 31.976562 L 12.90625 30.847656 L 10.179688 29.296875 L 7.039062 31.082031 L 4.175781 32.710938 Z M 6.902344 34.234375 " fill-opacity="1" fill-rule="evenodd"/></g></svg>