<svg xmlns="http://www.w3.org/2000/svg" xmlns:xlink="http://www.w3.org/1999/xlink" width="80" zoomAndPan="magnify" viewBox="0 0 60 60" height="80" preserveAspectRatio="xMidYMid meet" version="1.0"><defs><clipPath id="ad7fdcfe91"><path d="M 0 21.308594 L 60 21.308594 L 60 38.558594 L 0 38.558594 Z M 0 21.308594 " clip-rule="nonzero"/></clipPath></defs><g clip-path="url(#ad7fdcfe91)"><path fill="#737373" d="M 22.863281 25.273438 L 22.863281 33.035156 L 25.710938 33.035156 L 25.710938 34.371094 L 21.347656 34.371094 L 21.347656 25.273438 Z M 31.066406 29.132812 L 31.066406 28.3125 L 32.507812 28.3125 L 32.507812 34.371094 L 31.066406 34.371094 L 31.066406 33.554688 C 30.875 33.855469 30.601562 34.09375 30.242188 34.269531 C 29.886719 34.441406 29.527344 34.527344 29.167969 34.527344 C 28.703125 34.527344 28.277344 34.441406 27.890625 34.273438 C 27.507812 34.109375 27.175781 33.878906 26.894531 33.578125 C 26.613281 33.28125 26.398438 32.945312 26.246094 32.566406 C 26.089844 32.171875 26.011719 31.765625 26.015625 31.34375 C 26.015625 30.917969 26.09375 30.511719 26.246094 30.128906 C 26.398438 29.746094 26.613281 29.40625 26.894531 29.105469 C 27.175781 28.808594 27.507812 28.574219 27.890625 28.410156 C 28.277344 28.242188 28.703125 28.15625 29.167969 28.15625 C 29.527344 28.15625 29.886719 28.246094 30.242188 28.417969 C 30.601562 28.589844 30.875 28.828125 31.066406 29.132812 Z M 30.9375 32.085938 C 31.023438 31.84375 31.070312 31.597656 31.066406 31.34375 C 31.066406 31.082031 31.023438 30.835938 30.9375 30.601562 C 30.851562 30.375 30.730469 30.171875 30.566406 29.992188 C 30.402344 29.8125 30.210938 29.675781 29.992188 29.574219 C 29.769531 29.472656 29.519531 29.417969 29.246094 29.417969 C 28.976562 29.417969 28.730469 29.472656 28.507812 29.574219 C 28.289062 29.679688 28.101562 29.816406 27.941406 29.992188 C 27.78125 30.171875 27.660156 30.375 27.578125 30.601562 C 27.496094 30.839844 27.453125 31.089844 27.453125 31.34375 C 27.453125 31.601562 27.496094 31.851562 27.578125 32.082031 C 27.660156 32.3125 27.777344 32.515625 27.941406 32.695312 C 28.101562 32.871094 28.292969 33.007812 28.507812 33.109375 C 28.730469 33.214844 28.976562 33.265625 29.246094 33.265625 C 29.519531 33.265625 29.769531 33.214844 29.992188 33.109375 C 30.210938 33.011719 30.402344 32.871094 30.566406 32.695312 C 30.730469 32.515625 30.851562 32.3125 30.9375 32.085938 Z M 33.640625 34.371094 L 33.640625 28.3125 L 37.546875 28.3125 L 37.546875 29.707031 L 35.078125 29.707031 L 35.078125 34.371094 Z M 42.753906 29.132812 L 42.753906 28.3125 L 44.195312 28.3125 L 44.195312 34.371094 L 42.753906 34.371094 L 42.753906 33.554688 C 42.5625 33.855469 42.289062 34.09375 41.929688 34.269531 C 41.574219 34.441406 41.214844 34.527344 40.855469 34.527344 C 40.390625 34.527344 39.964844 34.441406 39.578125 34.273438 C 39.195312 34.109375 38.863281 33.878906 38.582031 33.578125 C 38.300781 33.28125 38.085938 32.945312 37.933594 32.566406 C 37.777344 32.171875 37.699219 31.765625 37.703125 31.34375 C 37.703125 30.917969 37.78125 30.511719 37.933594 30.128906 C 38.085938 29.746094 38.300781 29.40625 38.582031 29.105469 C 38.863281 28.808594 39.195312 28.574219 39.578125 28.410156 C 39.964844 28.242188 40.390625 28.15625 40.855469 28.15625 C 41.214844 28.15625 41.574219 28.246094 41.929688 28.417969 C 42.289062 28.589844 42.5625 28.828125 42.753906 29.132812 Z M 42.625 32.085938 C 42.710938 31.84375 42.757812 31.597656 42.753906 31.34375 C 42.753906 31.082031 42.710938 30.835938 42.625 30.601562 C 42.539062 30.375 42.417969 30.171875 42.253906 29.992188 C 42.089844 29.8125 41.898438 29.675781 41.679688 29.574219 C 41.457031 29.472656 41.207031 29.417969 40.933594 29.417969 C 40.664062 29.417969 40.417969 29.472656 40.195312 29.574219 C 39.976562 29.679688 39.789062 29.816406 39.628906 29.992188 C 39.464844 30.171875 39.347656 30.375 39.265625 30.601562 C 39.179688 30.839844 39.140625 31.089844 39.140625 31.34375 C 39.140625 31.601562 39.183594 31.851562 39.265625 32.082031 C 39.34375 32.3125 39.464844 32.515625 39.628906 32.695312 C 39.789062 32.871094 39.980469 33.007812 40.195312 33.109375 C 40.417969 33.214844 40.664062 33.265625 40.933594 33.265625 C 41.207031 33.265625 41.457031 33.214844 41.679688 33.109375 C 41.898438 33.011719 42.089844 32.871094 42.253906 32.695312 C 42.417969 32.515625 42.539062 32.3125 42.625 32.085938 Z M 49.957031 28.3125 L 51.414062 28.3125 L 49.054688 34.371094 L 47.246094 34.371094 L 44.886719 28.3125 L 46.34375 28.3125 L 48.152344 32.953125 Z M 54.550781 28.160156 C 56.507812 28.160156 57.84375 29.867188 57.59375 31.871094 L 52.820312 31.871094 C 52.820312 32.390625 53.359375 33.402344 54.628906 33.402344 C 55.722656 33.402344 56.457031 32.453125 56.457031 32.453125 L 57.425781 33.195312 C 56.558594 34.109375 55.847656 34.527344 54.734375 34.527344 C 52.746094 34.527344 51.394531 33.289062 51.394531 31.34375 C 51.394531 29.585938 52.789062 28.160156 54.550781 28.160156 Z M 52.824219 30.816406 L 56.273438 30.816406 C 56.261719 30.699219 56.074219 29.285156 54.539062 29.285156 C 53.003906 29.285156 52.835938 30.699219 52.824219 30.816406 Z M 58.527344 34.371094 L 58.527344 25.273438 L 59.964844 25.273438 L 59.964844 34.371094 Z M 16.96875 25.199219 C 16.976562 25.222656 16.980469 25.246094 16.980469 25.269531 L 16.980469 28.964844 C 16.980469 29.070312 16.933594 29.148438 16.84375 29.199219 L 13.695312 30.984375 L 13.695312 34.523438 C 13.695312 34.628906 13.648438 34.707031 13.558594 34.757812 L 6.992188 38.484375 C 6.976562 38.492188 6.960938 38.5 6.941406 38.503906 C 6.9375 38.507812 6.929688 38.511719 6.925781 38.511719 C 6.878906 38.523438 6.832031 38.523438 6.785156 38.511719 C 6.777344 38.511719 6.769531 38.503906 6.761719 38.503906 C 6.746094 38.496094 6.730469 38.492188 6.71875 38.484375 L 0.148438 34.757812 C 0.0585938 34.707031 0.0117188 34.628906 0.0117188 34.523438 L 0.0117188 23.441406 C 0.0117188 23.414062 0.015625 23.390625 0.0234375 23.371094 C 0.0234375 23.359375 0.0273438 23.355469 0.03125 23.347656 C 0.0390625 23.332031 0.0429688 23.316406 0.0507812 23.304688 C 0.0546875 23.296875 0.0625 23.289062 0.0664062 23.28125 C 0.078125 23.269531 0.0820312 23.257812 0.09375 23.25 C 0.101562 23.242188 0.109375 23.234375 0.121094 23.230469 C 0.128906 23.222656 0.136719 23.210938 0.148438 23.207031 L 3.433594 21.34375 C 3.523438 21.292969 3.617188 21.292969 3.707031 21.34375 L 6.992188 23.207031 C 7.003906 23.210938 7.011719 23.222656 7.023438 23.230469 C 7.03125 23.234375 7.039062 23.242188 7.046875 23.25 C 7.058594 23.257812 7.066406 23.269531 7.074219 23.28125 C 7.078125 23.289062 7.085938 23.296875 7.089844 23.304688 C 7.097656 23.316406 7.105469 23.332031 7.109375 23.347656 C 7.113281 23.355469 7.117188 23.359375 7.117188 23.371094 C 7.125 23.390625 7.128906 23.414062 7.128906 23.441406 L 7.128906 30.363281 L 9.863281 28.808594 L 9.863281 25.269531 C 9.863281 25.246094 9.867188 25.222656 9.875 25.199219 C 9.875 25.191406 9.882812 25.1875 9.882812 25.179688 C 9.890625 25.164062 9.894531 25.148438 9.902344 25.136719 C 9.90625 25.128906 9.914062 25.121094 9.921875 25.113281 C 9.929688 25.101562 9.933594 25.089844 9.945312 25.082031 C 9.953125 25.074219 9.960938 25.066406 9.972656 25.0625 C 9.980469 25.054688 9.992188 25.042969 10 25.039062 L 13.285156 23.175781 C 13.375 23.121094 13.46875 23.121094 13.558594 23.175781 L 16.84375 25.039062 C 16.855469 25.042969 16.863281 25.054688 16.875 25.0625 C 16.882812 25.066406 16.890625 25.074219 16.902344 25.082031 C 16.910156 25.089844 16.917969 25.101562 16.925781 25.113281 C 16.929688 25.121094 16.9375 25.128906 16.941406 25.136719 C 16.949219 25.148438 16.957031 25.164062 16.960938 25.179688 C 16.964844 25.1875 16.96875 25.191406 16.96875 25.199219 Z M 16.433594 28.808594 L 16.433594 25.738281 L 15.285156 26.390625 L 13.695312 27.289062 L 13.695312 30.363281 Z M 13.148438 34.367188 L 13.148438 31.292969 L 11.585938 32.171875 L 7.128906 34.679688 L 7.128906 37.785156 Z M 0.558594 23.90625 L 0.558594 34.367188 L 6.582031 37.785156 L 6.582031 34.683594 L 3.433594 32.925781 C 3.421875 32.921875 3.414062 32.910156 3.402344 32.902344 C 3.394531 32.898438 3.386719 32.890625 3.378906 32.882812 C 3.367188 32.875 3.363281 32.863281 3.355469 32.855469 C 3.347656 32.847656 3.339844 32.839844 3.335938 32.828125 L 3.332031 32.828125 C 3.328125 32.816406 3.324219 32.804688 3.320312 32.792969 C 3.316406 32.785156 3.308594 32.773438 3.308594 32.765625 L 3.308594 32.761719 C 3.304688 32.75 3.300781 32.738281 3.300781 32.722656 C 3.300781 32.714844 3.296875 32.703125 3.296875 32.695312 L 3.296875 25.457031 L 1.710938 24.558594 Z M 3.570312 21.886719 L 0.835938 23.441406 L 3.570312 24.992188 L 6.304688 23.441406 Z M 4.992188 31.574219 L 6.582031 30.671875 L 6.582031 23.90625 L 5.433594 24.558594 L 3.84375 25.460938 L 3.84375 32.226562 Z M 13.421875 23.71875 L 10.6875 25.269531 L 13.421875 26.824219 L 16.15625 25.269531 Z M 13.148438 27.289062 L 11.5625 26.390625 L 10.414062 25.738281 L 10.414062 28.808594 L 12 29.710938 L 13.148438 30.363281 Z M 6.855469 34.214844 L 10.867188 31.957031 L 12.871094 30.828125 L 10.136719 29.277344 L 6.992188 31.0625 L 4.121094 32.691406 Z M 6.855469 34.214844 " fill-opacity="1" fill-rule="evenodd"/></g></svg>