<?xml version="1.0" encoding="UTF-8"?>
<svg xmlns="http://www.w3.org/2000/svg" xmlns:xlink="http://www.w3.org/1999/xlink" width="30px" height="30px" viewBox="0 0 30 30" version="1.1">
<defs>
<clipPath id="clip1">
  <path d="M 0.5625 0 L 12 0 L 12 10 L 0.5625 10 Z M 0.5625 0 "/>
</clipPath>
<clipPath id="clip2">
  <path d="M 0.5625 19 L 29.515625 19 L 29.515625 29.03125 L 0.5625 29.03125 Z M 0.5625 19 "/>
</clipPath>
<clipPath id="clip3">
  <path d="M 13 0 L 29.515625 0 L 29.515625 19 L 13 19 Z M 13 0 "/>
</clipPath>
</defs>
<g id="surface1">
<g clip-path="url(#clip1)" clip-rule="nonzero">
<path style=" stroke:none;fill-rule:nonzero;fill:rgb(98.431373%,74.901961%,0%);fill-opacity:1;" d="M 4.230469 0 L 11.753906 0 C 11.851562 0 11.902344 0.046875 11.902344 0.144531 L 11.902344 9.539062 C 11.902344 9.636719 11.851562 9.683594 11.753906 9.683594 L 0.710938 9.683594 C 0.613281 9.683594 0.566406 9.636719 0.566406 9.539062 L 0.566406 3.644531 C 0.566406 3.160156 0.660156 2.695312 0.84375 2.25 C 1.03125 1.804688 1.296875 1.410156 1.640625 1.066406 C 1.984375 0.726562 2.378906 0.460938 2.828125 0.277344 C 3.277344 0.09375 3.746094 0 4.230469 0 Z M 4.230469 0 "/>
</g>
<g clip-path="url(#clip2)" clip-rule="nonzero">
<path style=" stroke:none;fill-rule:nonzero;fill:rgb(60%,60%,60%);fill-opacity:1;" d="M 0.566406 19.386719 L 29.59375 19.386719 L 29.59375 25.398438 C 29.59375 25.640625 29.574219 25.878906 29.53125 26.117188 C 29.484375 26.355469 29.417969 26.585938 29.324219 26.808594 C 29.234375 27.035156 29.121094 27.246094 28.988281 27.449219 C 28.851562 27.652344 28.699219 27.835938 28.527344 28.007812 C 28.355469 28.179688 28.171875 28.332031 27.96875 28.46875 C 27.765625 28.601562 27.550781 28.714844 27.328125 28.808594 C 27.101562 28.898438 26.871094 28.96875 26.632812 29.015625 C 26.390625 29.0625 26.152344 29.082031 25.90625 29.082031 L 4.242188 29.082031 C 3.75 29.082031 3.277344 28.988281 2.824219 28.796875 C 2.371094 28.609375 1.96875 28.339844 1.625 27.992188 C 1.28125 27.644531 1.015625 27.246094 0.832031 26.792969 C 0.648438 26.335938 0.558594 25.867188 0.566406 25.378906 Z M 0.566406 19.386719 "/>
</g>
<g clip-path="url(#clip3)" clip-rule="nonzero">
<path style=" stroke:none;fill-rule:nonzero;fill:rgb(60%,60%,60%);fill-opacity:1;" d="M 25.800781 0 L 13.128906 0 L 13.128906 9.695312 L 16.054688 9.695312 C 18.832031 9.695312 20.285156 10.835938 20.625 13.222656 L 20.625 14.335938 C 20.628906 14.761719 20.5625 15.175781 20.433594 15.578125 C 20.304688 15.980469 20.113281 16.355469 19.867188 16.699219 C 19.617188 17.042969 19.320312 17.339844 18.976562 17.589844 C 18.636719 17.839844 18.261719 18.03125 17.855469 18.164062 L 29.59375 18.164062 L 29.59375 3.808594 C 29.59375 3.308594 29.5 2.824219 29.308594 2.359375 C 29.117188 1.890625 28.84375 1.480469 28.488281 1.125 C 28.132812 0.765625 27.722656 0.492188 27.257812 0.296875 C 26.792969 0.101562 26.304688 0.00390625 25.800781 0 Z M 25.800781 0 "/>
</g>
</g>
</svg>
