<svg id="Layer_1" data-name="Layer 1" xmlns="http://www.w3.org/2000/svg" xmlns:xlink="http://www.w3.org/1999/xlink" viewBox="0 0 38.71 40"><defs><style>.cls-1{fill:none;}.cls-2{clip-path:url(#clip-path);}.cls-3{fill:#fbbf00;}.cls-4{clip-path:url(#clip-path-2);}.cls-5{fill:#999;}.cls-6{fill:#fff;}</style><clipPath id="clip-path" transform="translate(-0.65)"><rect class="cls-1" x="0.65" width="15.35" height="13.33"/></clipPath><clipPath id="clip-path-2" transform="translate(-0.65)"><rect class="cls-1" x="17.33" width="22.02" height="25.33"/></clipPath></defs><g class="cls-2"><path class="cls-3" d="M5.54,0h10a.18.18,0,0,1,.2.2V12.93a.18.18,0,0,1-.2.2H.84c-.13,0-.19-.07-.19-.2v-8A5.05,5.05,0,0,1,1,3.05a4.81,4.81,0,0,1,1.06-1.6A4.93,4.93,0,0,1,3.67.37,4.8,4.8,0,0,1,5.54,0Z" transform="translate(-0.65)"/></g><g class="cls-4"><path class="cls-5" d="M34.3,0H17.4V13.19h3.9c3.71,0,5.64,1.56,6.1,4.8v1.52a5.68,5.68,0,0,1-.26,1.69,5.55,5.55,0,0,1-.76,1.52,5.26,5.26,0,0,1-1.18,1.22,5.36,5.36,0,0,1-1.5.78H39.35V5.18a5.55,5.55,0,0,0-.09-1,5.18,5.18,0,0,0-.29-1,4.77,4.77,0,0,0-.46-.9,6,6,0,0,0-.63-.78,4.82,4.82,0,0,0-.77-.65A4.39,4.39,0,0,0,36.23.4a5.14,5.14,0,0,0-.94-.3A5.54,5.54,0,0,0,34.3,0Z" transform="translate(-0.65)"/></g><path class="cls-6" d="M0,26.39H38.71a0,0,0,0,1,0,0v9.12A4.49,4.49,0,0,1,34.22,40H4.48A4.48,4.48,0,0,1,0,35.52V26.39a0,0,0,0,1,0,0Z"/></svg>