<?xml version="1.0" encoding="utf-8"?>
<!-- Generator: Adobe Illustrator 26.0.3, SVG Export Plug-In . SVG Version: 6.00 Build 0)  -->
<svg version="1.1" id="Layer_1" xmlns="http://www.w3.org/2000/svg" xmlns:xlink="http://www.w3.org/1999/xlink" x="0px" y="0px"
	 viewBox="0 0 40 40" style="enable-background:new 0 0 40 40;" xml:space="preserve">
<style type="text/css">
	.st0{clip-path:url(#SVGID_00000062908746550196382480000016265429150989017762_);}
	.st1{fill:#FBBF00;}
	.st2{clip-path:url(#SVGID_00000183230023268424174060000009644794339825267644_);}
	.st3{fill:#999999;}
	.st4{fill:#FFFFFF;}
</style>
<g>
	<defs>
		<rect id="SVGID_1_" x="0.6" width="15.4" height="13.3"/>
	</defs>
	<clipPath id="SVGID_00000132798814310452519110000010674455750160394683_">
		<use xlink:href="#SVGID_1_"  style="overflow:visible;"/>
	</clipPath>
	<g style="clip-path:url(#SVGID_00000132798814310452519110000010674455750160394683_);">
		<path class="st1" d="M5.5,0h10c0.1,0,0.2,0.1,0.2,0.2v12.7c0,0.1-0.1,0.2-0.2,0.2H0.8c-0.1,0-0.2-0.1-0.2-0.2v-8
			C0.7,4.3,0.8,3.7,1,3c0.2-0.6,0.6-1.1,1.1-1.6c0.5-0.5,1-0.8,1.6-1.1C4.3,0.1,4.9,0,5.5,0z"/>
	</g>
</g>
<g>
	<defs>
		<rect id="SVGID_00000080890332242054014040000016149977264789366708_" x="17.3" width="22" height="25.3"/>
	</defs>
	<clipPath id="SVGID_00000167387316183836588530000007245011210951435437_">
		<use xlink:href="#SVGID_00000080890332242054014040000016149977264789366708_"  style="overflow:visible;"/>
	</clipPath>
	<g style="clip-path:url(#SVGID_00000167387316183836588530000007245011210951435437_);">
		<path class="st3" d="M34.3,0H17.4v13.2h3.9c3.7,0,5.6,1.6,6.1,4.8v1.5c0,0.6-0.1,1.1-0.3,1.7c-0.2,0.5-0.4,1.1-0.8,1.5
			c-0.3,0.5-0.7,0.9-1.2,1.2c-0.5,0.3-1,0.6-1.5,0.8h15.6V5.2c0-0.3,0-0.7-0.1-1s-0.2-0.7-0.3-1c-0.1-0.3-0.3-0.6-0.5-0.9
			c-0.2-0.3-0.4-0.5-0.6-0.8c-0.2-0.2-0.5-0.5-0.8-0.6c-0.3-0.2-0.6-0.3-0.9-0.5c-0.3-0.1-0.6-0.2-0.9-0.3S34.6,0,34.3,0z"/>
	</g>
</g>
<path class="st4" d="M34.9,40H5.1c-2.5,0-4.5-2-4.5-4.5v-9.1h38.7v9.1C39.4,38,37.3,40,34.9,40z"/>
</svg>
