<svg xmlns="http://www.w3.org/2000/svg" xmlns:xlink="http://www.w3.org/1999/xlink" width="80" zoomAndPan="magnify" viewBox="0 0 60 60" height="80" preserveAspectRatio="xMidYMid meet" version="1.0"><defs><clipPath id="2507edd3a8"><path d="M 0.789062 14.597656 L 59.210938 14.597656 L 59.210938 45.246094 L 0.789062 45.246094 Z M 0.789062 14.597656 " clip-rule="nonzero"/></clipPath><clipPath id="e2b3f53f1f"><path d="M 0.84375 29.921875 C 0.84375 38.351562 13.898438 45.1875 30 45.1875 C 46.101562 45.1875 59.15625 38.351562 59.15625 29.921875 C 59.15625 21.492188 46.101562 14.65625 30 14.65625 C 13.898438 14.65625 0.84375 21.492188 0.84375 29.921875 " clip-rule="nonzero"/></clipPath><clipPath id="aacf34d9fb"><path d="M 0.84375 29.921875 C 0.84375 38.351562 13.898438 45.1875 30 45.1875 C 46.101562 45.1875 59.15625 38.351562 59.15625 29.921875 C 59.15625 21.492188 46.101562 14.65625 30 14.65625 C 13.898438 14.65625 0.84375 21.492188 0.84375 29.921875 " clip-rule="nonzero"/></clipPath><radialGradient gradientTransform="matrix(1.002356, 0, 0, 0.997644, 18.349243, 20.024042)" gradientUnits="userSpaceOnUse" r="38.196417" cx="0" id="f31d15d972" cy="0" fx="0" fy="0"><stop stop-opacity="1" stop-color="rgb(68.199158%, 69.799805%, 83.499146%)" offset="0"/><stop stop-opacity="1" stop-color="rgb(68.199158%, 69.799805%, 83.499146%)" offset="0.25"/><stop stop-opacity="1" stop-color="rgb(68.164062%, 69.764709%, 83.473206%)" offset="0.296875"/><stop stop-opacity="1" stop-color="rgb(67.956543%, 69.555664%, 83.317566%)" offset="0.300781"/><stop stop-opacity="1" stop-color="rgb(67.608643%, 69.20929%, 83.059692%)" offset="0.304688"/><stop stop-opacity="1" stop-color="rgb(67.260742%, 68.861389%, 82.800293%)" offset="0.308594"/><stop stop-opacity="1" stop-color="rgb(66.914368%, 68.513489%, 82.542419%)" offset="0.3125"/><stop stop-opacity="1" stop-color="rgb(66.566467%, 68.167114%, 82.28302%)" offset="0.316406"/><stop stop-opacity="1" stop-color="rgb(66.220093%, 67.819214%, 82.025146%)" offset="0.320312"/><stop stop-opacity="1" stop-color="rgb(65.872192%, 67.472839%, 81.765747%)" offset="0.324219"/><stop stop-opacity="1" stop-color="rgb(65.525818%, 67.124939%, 81.506348%)" offset="0.328125"/><stop stop-opacity="1" stop-color="rgb(65.177917%, 66.778564%, 81.248474%)" offset="0.332031"/><stop stop-opacity="1" stop-color="rgb(64.831543%, 66.430664%, 80.989075%)" offset="0.335938"/><stop stop-opacity="1" stop-color="rgb(64.483643%, 66.08429%, 80.731201%)" offset="0.339844"/><stop stop-opacity="1" stop-color="rgb(64.135742%, 65.736389%, 80.471802%)" offset="0.34375"/><stop stop-opacity="1" stop-color="rgb(63.789368%, 65.388489%, 80.213928%)" offset="0.347656"/><stop stop-opacity="1" stop-color="rgb(63.441467%, 65.042114%, 79.954529%)" offset="0.351562"/><stop stop-opacity="1" stop-color="rgb(63.095093%, 64.694214%, 79.696655%)" offset="0.355469"/><stop stop-opacity="1" stop-color="rgb(62.747192%, 64.347839%, 79.437256%)" offset="0.359375"/><stop stop-opacity="1" stop-color="rgb(62.400818%, 63.999939%, 79.179382%)" offset="0.363281"/><stop stop-opacity="1" stop-color="rgb(62.052917%, 63.653564%, 78.919983%)" offset="0.367188"/><stop stop-opacity="1" stop-color="rgb(61.706543%, 63.305664%, 78.662109%)" offset="0.371094"/><stop stop-opacity="1" stop-color="rgb(61.358643%, 62.95929%, 78.40271%)" offset="0.375"/><stop stop-opacity="1" stop-color="rgb(61.010742%, 62.611389%, 78.144836%)" offset="0.378906"/><stop stop-opacity="1" stop-color="rgb(60.664368%, 62.263489%, 77.885437%)" offset="0.382812"/><stop stop-opacity="1" stop-color="rgb(60.316467%, 61.917114%, 77.627563%)" offset="0.386719"/><stop stop-opacity="1" stop-color="rgb(59.970093%, 61.569214%, 77.368164%)" offset="0.390625"/><stop stop-opacity="1" stop-color="rgb(59.622192%, 61.222839%, 77.108765%)" offset="0.394531"/><stop stop-opacity="1" stop-color="rgb(59.275818%, 60.874939%, 76.850891%)" offset="0.398438"/><stop stop-opacity="1" stop-color="rgb(58.927917%, 60.528564%, 76.591492%)" offset="0.402344"/><stop stop-opacity="1" stop-color="rgb(58.581543%, 60.180664%, 76.333618%)" offset="0.40625"/><stop stop-opacity="1" stop-color="rgb(58.233643%, 59.83429%, 76.074219%)" offset="0.410156"/><stop stop-opacity="1" stop-color="rgb(57.885742%, 59.486389%, 75.816345%)" offset="0.414062"/><stop stop-opacity="1" stop-color="rgb(57.539368%, 59.138489%, 75.556946%)" offset="0.417969"/><stop stop-opacity="1" stop-color="rgb(57.191467%, 58.792114%, 75.299072%)" offset="0.421875"/><stop stop-opacity="1" stop-color="rgb(56.845093%, 58.444214%, 75.039673%)" offset="0.425781"/><stop stop-opacity="1" stop-color="rgb(56.497192%, 58.097839%, 74.781799%)" offset="0.429688"/><stop stop-opacity="1" stop-color="rgb(56.150818%, 57.749939%, 74.5224%)" offset="0.433594"/><stop stop-opacity="1" stop-color="rgb(55.802917%, 57.403564%, 74.264526%)" offset="0.4375"/><stop stop-opacity="1" stop-color="rgb(55.456543%, 57.055664%, 74.005127%)" offset="0.441406"/><stop stop-opacity="1" stop-color="rgb(55.108643%, 56.70929%, 73.747253%)" offset="0.445312"/><stop stop-opacity="1" stop-color="rgb(54.760742%, 56.361389%, 73.487854%)" offset="0.449219"/><stop stop-opacity="1" stop-color="rgb(54.414368%, 56.013489%, 73.22998%)" offset="0.453125"/><stop stop-opacity="1" stop-color="rgb(54.066467%, 55.667114%, 72.970581%)" offset="0.457031"/><stop stop-opacity="1" stop-color="rgb(53.720093%, 55.319214%, 72.711182%)" offset="0.460938"/><stop stop-opacity="1" stop-color="rgb(53.372192%, 54.972839%, 72.453308%)" offset="0.464844"/><stop stop-opacity="1" stop-color="rgb(53.025818%, 54.624939%, 72.193909%)" offset="0.46875"/><stop stop-opacity="1" stop-color="rgb(52.677917%, 54.278564%, 71.936035%)" offset="0.472656"/><stop stop-opacity="1" stop-color="rgb(52.331543%, 53.930664%, 71.676636%)" offset="0.476562"/><stop stop-opacity="1" stop-color="rgb(51.983643%, 53.58429%, 71.418762%)" offset="0.480469"/><stop stop-opacity="1" stop-color="rgb(51.635742%, 53.236389%, 71.159363%)" offset="0.484375"/><stop stop-opacity="1" stop-color="rgb(51.289368%, 52.888489%, 70.901489%)" offset="0.488281"/><stop stop-opacity="1" stop-color="rgb(50.941467%, 52.542114%, 70.64209%)" offset="0.492188"/><stop stop-opacity="1" stop-color="rgb(50.595093%, 52.194214%, 70.384216%)" offset="0.496094"/><stop stop-opacity="1" stop-color="rgb(50.247192%, 51.847839%, 70.124817%)" offset="0.5"/><stop stop-opacity="1" stop-color="rgb(49.900818%, 51.499939%, 69.866943%)" offset="0.503906"/><stop stop-opacity="1" stop-color="rgb(49.552917%, 51.153564%, 69.607544%)" offset="0.507812"/><stop stop-opacity="1" stop-color="rgb(49.206543%, 50.805664%, 69.34967%)" offset="0.511719"/><stop stop-opacity="1" stop-color="rgb(48.858643%, 50.45929%, 69.090271%)" offset="0.515625"/><stop stop-opacity="1" stop-color="rgb(48.510742%, 50.111389%, 68.832397%)" offset="0.519531"/><stop stop-opacity="1" stop-color="rgb(48.164368%, 49.763489%, 68.572998%)" offset="0.523438"/><stop stop-opacity="1" stop-color="rgb(47.816467%, 49.417114%, 68.313599%)" offset="0.527344"/><stop stop-opacity="1" stop-color="rgb(47.470093%, 49.069214%, 68.055725%)" offset="0.53125"/><stop stop-opacity="1" stop-color="rgb(47.122192%, 48.722839%, 67.796326%)" offset="0.535156"/><stop stop-opacity="1" stop-color="rgb(46.775818%, 48.374939%, 67.538452%)" offset="0.539062"/><stop stop-opacity="1" stop-color="rgb(46.427917%, 48.028564%, 67.279053%)" offset="0.542969"/><stop stop-opacity="1" stop-color="rgb(46.081543%, 47.680664%, 67.021179%)" offset="0.546875"/><stop stop-opacity="1" stop-color="rgb(45.733643%, 47.33429%, 66.76178%)" offset="0.550781"/><stop stop-opacity="1" stop-color="rgb(45.385742%, 46.986389%, 66.503906%)" offset="0.554688"/><stop stop-opacity="1" stop-color="rgb(45.039368%, 46.638489%, 66.244507%)" offset="0.558594"/><stop stop-opacity="1" stop-color="rgb(44.691467%, 46.292114%, 65.986633%)" offset="0.5625"/><stop stop-opacity="1" stop-color="rgb(44.345093%, 45.944214%, 65.727234%)" offset="0.566406"/><stop stop-opacity="1" stop-color="rgb(43.997192%, 45.597839%, 65.46936%)" offset="0.570312"/><stop stop-opacity="1" stop-color="rgb(43.650818%, 45.249939%, 65.209961%)" offset="0.574219"/><stop stop-opacity="1" stop-color="rgb(43.302917%, 44.903564%, 64.952087%)" offset="0.578125"/><stop stop-opacity="1" stop-color="rgb(42.956543%, 44.555664%, 64.692688%)" offset="0.582031"/><stop stop-opacity="1" stop-color="rgb(42.608643%, 44.20929%, 64.434814%)" offset="0.585938"/><stop stop-opacity="1" stop-color="rgb(42.260742%, 43.861389%, 64.175415%)" offset="0.589844"/><stop stop-opacity="1" stop-color="rgb(41.914368%, 43.513489%, 63.916016%)" offset="0.59375"/><stop stop-opacity="1" stop-color="rgb(41.566467%, 43.167114%, 63.658142%)" offset="0.597656"/><stop stop-opacity="1" stop-color="rgb(41.220093%, 42.819214%, 63.398743%)" offset="0.601562"/><stop stop-opacity="1" stop-color="rgb(40.872192%, 42.472839%, 63.140869%)" offset="0.605469"/><stop stop-opacity="1" stop-color="rgb(40.525818%, 42.124939%, 62.88147%)" offset="0.609375"/><stop stop-opacity="1" stop-color="rgb(40.177917%, 41.778564%, 62.623596%)" offset="0.613281"/><stop stop-opacity="1" stop-color="rgb(39.831543%, 41.430664%, 62.364197%)" offset="0.617188"/><stop stop-opacity="1" stop-color="rgb(39.483643%, 41.08429%, 62.106323%)" offset="0.621094"/><stop stop-opacity="1" stop-color="rgb(39.135742%, 40.736389%, 61.846924%)" offset="0.625"/><stop stop-opacity="1" stop-color="rgb(38.789368%, 40.388489%, 61.58905%)" offset="0.628906"/><stop stop-opacity="1" stop-color="rgb(38.441467%, 40.042114%, 61.329651%)" offset="0.632812"/><stop stop-opacity="1" stop-color="rgb(38.095093%, 39.694214%, 61.071777%)" offset="0.636719"/><stop stop-opacity="1" stop-color="rgb(37.747192%, 39.347839%, 60.812378%)" offset="0.640625"/><stop stop-opacity="1" stop-color="rgb(37.400818%, 38.999939%, 60.554504%)" offset="0.644531"/><stop stop-opacity="1" stop-color="rgb(37.052917%, 38.653564%, 60.295105%)" offset="0.648438"/><stop stop-opacity="1" stop-color="rgb(36.706543%, 38.305664%, 60.037231%)" offset="0.652344"/><stop stop-opacity="1" stop-color="rgb(36.358643%, 37.95929%, 59.777832%)" offset="0.65625"/><stop stop-opacity="1" stop-color="rgb(36.010742%, 37.611389%, 59.518433%)" offset="0.660156"/><stop stop-opacity="1" stop-color="rgb(35.664368%, 37.263489%, 59.260559%)" offset="0.664062"/><stop stop-opacity="1" stop-color="rgb(35.316467%, 36.917114%, 59.00116%)" offset="0.667969"/><stop stop-opacity="1" stop-color="rgb(34.970093%, 36.569214%, 58.743286%)" offset="0.671875"/><stop stop-opacity="1" stop-color="rgb(34.622192%, 36.222839%, 58.483887%)" offset="0.675781"/><stop stop-opacity="1" stop-color="rgb(34.275818%, 35.874939%, 58.226013%)" offset="0.679688"/><stop stop-opacity="1" stop-color="rgb(33.927917%, 35.528564%, 57.966614%)" offset="0.683594"/><stop stop-opacity="1" stop-color="rgb(33.581543%, 35.180664%, 57.70874%)" offset="0.6875"/><stop stop-opacity="1" stop-color="rgb(33.233643%, 34.83429%, 57.449341%)" offset="0.691406"/><stop stop-opacity="1" stop-color="rgb(32.885742%, 34.486389%, 57.191467%)" offset="0.695312"/><stop stop-opacity="1" stop-color="rgb(32.539368%, 34.138489%, 56.932068%)" offset="0.699219"/><stop stop-opacity="1" stop-color="rgb(32.191467%, 33.792114%, 56.674194%)" offset="0.703125"/><stop stop-opacity="1" stop-color="rgb(31.845093%, 33.444214%, 56.414795%)" offset="0.707031"/><stop stop-opacity="1" stop-color="rgb(31.497192%, 33.097839%, 56.156921%)" offset="0.710938"/><stop stop-opacity="1" stop-color="rgb(31.150818%, 32.749939%, 55.897522%)" offset="0.714844"/><stop stop-opacity="1" stop-color="rgb(30.802917%, 32.403564%, 55.639648%)" offset="0.71875"/><stop stop-opacity="1" stop-color="rgb(30.456543%, 32.055664%, 55.380249%)" offset="0.722656"/><stop stop-opacity="1" stop-color="rgb(30.108643%, 31.70929%, 55.122375%)" offset="0.726562"/><stop stop-opacity="1" stop-color="rgb(29.760742%, 31.361389%, 54.862976%)" offset="0.730469"/><stop stop-opacity="1" stop-color="rgb(29.414368%, 31.013489%, 54.603577%)" offset="0.734375"/><stop stop-opacity="1" stop-color="rgb(29.066467%, 30.667114%, 54.345703%)" offset="0.738281"/><stop stop-opacity="1" stop-color="rgb(28.720093%, 30.319214%, 54.086304%)" offset="0.742188"/><stop stop-opacity="1" stop-color="rgb(28.372192%, 29.972839%, 53.82843%)" offset="0.746094"/><stop stop-opacity="1" stop-color="rgb(28.199768%, 29.798889%, 53.69873%)" offset="1"/></radialGradient></defs><g clip-path="url(#2507edd3a8)"><g clip-path="url(#e2b3f53f1f)"><g clip-path="url(#aacf34d9fb)"><path fill="url(#f31d15d972)" d="M 0.84375 14.65625 L 0.84375 45.1875 L 59.15625 45.1875 L 59.15625 14.65625 Z M 0.84375 14.65625 " fill-rule="nonzero"/></g></g></g><path fill="#777bb3" d="M 30 44.054688 C 45.472656 44.054688 58.015625 37.726562 58.015625 29.921875 C 58.015625 22.117188 45.472656 15.789062 30 15.789062 C 14.527344 15.789062 1.984375 22.117188 1.984375 29.921875 C 1.984375 37.726562 14.527344 44.054688 30 44.054688 " fill-opacity="1" fill-rule="nonzero"/><path fill="#000000" d="M 16.683594 31.675781 C 17.957031 31.675781 18.90625 31.441406 19.507812 30.980469 C 20.101562 30.523438 20.511719 29.734375 20.726562 28.632812 C 20.929688 27.605469 20.851562 26.886719 20.5 26.5 C 20.140625 26.101562 19.363281 25.902344 18.191406 25.902344 L 16.160156 25.902344 L 15.03125 31.675781 Z M 10.035156 38.785156 C 9.941406 38.785156 9.851562 38.742188 9.789062 38.671875 C 9.730469 38.597656 9.707031 38.503906 9.722656 38.410156 L 12.710938 23.113281 C 12.738281 22.964844 12.871094 22.859375 13.023438 22.859375 L 19.460938 22.859375 C 21.484375 22.859375 22.988281 23.40625 23.9375 24.484375 C 24.886719 25.566406 25.183594 27.082031 24.808594 28.988281 C 24.660156 29.765625 24.398438 30.484375 24.035156 31.128906 C 23.671875 31.777344 23.195312 32.375 22.609375 32.90625 C 21.914062 33.558594 21.125 34.027344 20.265625 34.304688 C 19.421875 34.578125 18.339844 34.71875 17.042969 34.71875 L 14.4375 34.71875 L 13.691406 38.53125 C 13.664062 38.679688 13.535156 38.785156 13.382812 38.785156 Z M 10.035156 38.785156 " fill-opacity="1" fill-rule="nonzero"/><path fill="#ffffff" d="M 16.417969 26.214844 L 18.191406 26.214844 C 19.609375 26.214844 20.097656 26.527344 20.265625 26.710938 C 20.542969 27.015625 20.597656 27.660156 20.417969 28.574219 C 20.21875 29.597656 19.847656 30.324219 19.316406 30.730469 C 18.769531 31.148438 17.886719 31.359375 16.683594 31.359375 L 15.414062 31.359375 Z M 19.460938 22.542969 L 13.023438 22.542969 C 12.71875 22.542969 12.457031 22.757812 12.402344 23.050781 L 9.414062 38.351562 C 9.378906 38.535156 9.425781 38.726562 9.546875 38.871094 C 9.667969 39.015625 9.84375 39.101562 10.035156 39.101562 L 13.382812 39.101562 C 13.683594 39.101562 13.945312 38.886719 14.003906 38.589844 L 14.699219 35.035156 L 17.042969 35.035156 C 18.371094 35.035156 19.488281 34.890625 20.363281 34.605469 C 21.265625 34.3125 22.09375 33.820312 22.828125 33.136719 C 23.433594 32.582031 23.933594 31.957031 24.3125 31.285156 C 24.691406 30.609375 24.960938 29.859375 25.121094 29.046875 C 25.511719 27.042969 25.195312 25.4375 24.175781 24.277344 C 23.164062 23.125 21.578125 22.542969 19.460938 22.542969 M 14.648438 31.988281 L 16.683594 31.988281 C 18.035156 31.988281 19.039062 31.738281 19.699219 31.230469 C 20.363281 30.722656 20.808594 29.878906 21.039062 28.695312 C 21.261719 27.558594 21.160156 26.753906 20.734375 26.289062 C 20.3125 25.820312 19.464844 25.585938 18.191406 25.585938 L 15.898438 25.585938 L 14.648438 31.988281 M 19.460938 23.171875 C 21.398438 23.171875 22.808594 23.679688 23.699219 24.691406 C 24.585938 25.703125 24.855469 27.113281 24.5 28.929688 C 24.355469 29.675781 24.105469 30.359375 23.757812 30.976562 C 23.410156 31.597656 22.957031 32.164062 22.398438 32.675781 C 21.726562 33.296875 20.984375 33.742188 20.167969 34.007812 C 19.351562 34.273438 18.308594 34.402344 17.042969 34.402344 L 14.175781 34.402344 L 13.382812 38.46875 L 10.035156 38.46875 L 13.023438 23.171875 L 19.460938 23.171875 " fill-opacity="1" fill-rule="nonzero"/><path fill="#000000" d="M 32.488281 34.71875 C 32.390625 34.71875 32.304688 34.675781 32.242188 34.605469 C 32.183594 34.53125 32.160156 34.4375 32.175781 34.34375 L 33.496094 27.574219 C 33.625 26.929688 33.59375 26.46875 33.410156 26.273438 C 33.300781 26.15625 32.964844 25.953125 31.976562 25.953125 L 29.582031 25.953125 L 27.921875 34.464844 C 27.890625 34.613281 27.761719 34.71875 27.609375 34.71875 L 24.289062 34.71875 C 24.191406 34.71875 24.105469 34.675781 24.042969 34.605469 C 23.984375 34.53125 23.960938 34.4375 23.976562 34.34375 L 26.964844 19.046875 C 26.992188 18.898438 27.125 18.789062 27.273438 18.789062 L 30.597656 18.789062 C 30.691406 18.789062 30.78125 18.832031 30.839844 18.90625 C 30.902344 18.976562 30.925781 19.074219 30.90625 19.164062 L 30.1875 22.859375 L 32.761719 22.859375 C 34.722656 22.859375 36.054688 23.203125 36.828125 23.910156 C 37.621094 24.632812 37.867188 25.789062 37.5625 27.34375 L 36.171875 34.464844 C 36.144531 34.613281 36.011719 34.71875 35.863281 34.71875 Z M 32.488281 34.71875 " fill-opacity="1" fill-rule="nonzero"/><path fill="#ffffff" d="M 30.597656 18.476562 L 27.273438 18.476562 C 26.972656 18.476562 26.710938 18.691406 26.652344 18.984375 L 23.667969 34.285156 C 23.628906 34.46875 23.679688 34.660156 23.800781 34.804688 C 23.917969 34.949219 24.097656 35.035156 24.289062 35.035156 L 27.609375 35.035156 C 27.914062 35.035156 28.171875 34.820312 28.230469 34.523438 L 29.84375 26.269531 L 31.976562 26.269531 C 32.964844 26.269531 33.171875 26.480469 33.179688 26.488281 C 33.238281 26.550781 33.316406 26.847656 33.1875 27.515625 L 31.867188 34.285156 C 31.828125 34.46875 31.878906 34.660156 32 34.804688 C 32.117188 34.949219 32.296875 35.035156 32.488281 35.035156 L 35.863281 35.035156 C 36.164062 35.035156 36.425781 34.820312 36.484375 34.523438 L 37.871094 27.40625 C 38.199219 25.734375 37.917969 24.480469 37.042969 23.679688 C 36.207031 22.914062 34.808594 22.542969 32.761719 22.542969 L 30.570312 22.542969 L 31.21875 19.226562 C 31.253906 19.042969 31.207031 18.851562 31.085938 18.707031 C 30.964844 18.558594 30.785156 18.476562 30.597656 18.476562 M 30.597656 19.105469 L 29.804688 23.171875 L 32.761719 23.171875 C 34.625 23.171875 35.910156 23.496094 36.617188 24.140625 C 37.320312 24.789062 37.535156 25.835938 37.25 27.285156 L 35.863281 34.402344 L 32.488281 34.402344 L 33.808594 27.636719 C 33.957031 26.863281 33.902344 26.339844 33.640625 26.058594 C 33.382812 25.78125 32.824219 25.640625 31.976562 25.640625 L 29.320312 25.640625 L 27.609375 34.402344 L 24.289062 34.402344 L 27.273438 19.105469 L 30.597656 19.105469 " fill-opacity="1" fill-rule="nonzero"/><path fill="#000000" d="M 42.816406 31.675781 C 44.089844 31.675781 45.039062 31.441406 45.640625 30.980469 C 46.234375 30.523438 46.644531 29.734375 46.863281 28.632812 C 47.0625 27.605469 46.984375 26.886719 46.632812 26.5 C 46.273438 26.101562 45.5 25.902344 44.324219 25.902344 L 42.292969 25.902344 L 41.164062 31.675781 Z M 36.167969 38.785156 C 36.074219 38.785156 35.984375 38.742188 35.921875 38.671875 C 35.863281 38.597656 35.839844 38.503906 35.855469 38.410156 L 38.84375 23.113281 C 38.875 22.964844 39.003906 22.859375 39.15625 22.859375 L 45.59375 22.859375 C 47.617188 22.859375 49.125 23.40625 50.070312 24.484375 C 51.023438 25.566406 51.316406 27.082031 50.945312 28.988281 C 50.792969 29.765625 50.53125 30.484375 50.167969 31.128906 C 49.804688 31.777344 49.328125 32.375 48.746094 32.90625 C 48.046875 33.558594 47.257812 34.027344 46.398438 34.304688 C 45.554688 34.578125 44.472656 34.71875 43.179688 34.71875 L 40.570312 34.71875 L 39.828125 38.53125 C 39.796875 38.679688 39.667969 38.785156 39.515625 38.785156 Z M 36.167969 38.785156 " fill-opacity="1" fill-rule="nonzero"/><path fill="#ffffff" d="M 42.554688 26.214844 L 44.324219 26.214844 C 45.742188 26.214844 46.234375 26.527344 46.398438 26.710938 C 46.675781 27.015625 46.730469 27.660156 46.550781 28.574219 C 46.351562 29.597656 45.980469 30.324219 45.449219 30.730469 C 44.902344 31.148438 44.019531 31.359375 42.816406 31.359375 L 41.550781 31.359375 Z M 45.59375 22.542969 L 39.15625 22.542969 C 38.851562 22.542969 38.59375 22.757812 38.535156 23.050781 L 35.546875 38.351562 C 35.511719 38.535156 35.558594 38.726562 35.679688 38.871094 C 35.800781 39.015625 35.980469 39.101562 36.167969 39.101562 L 39.515625 39.101562 C 39.820312 39.101562 40.078125 38.886719 40.136719 38.589844 L 40.832031 35.035156 L 43.179688 35.035156 C 44.503906 35.035156 45.621094 34.890625 46.496094 34.605469 C 47.398438 34.3125 48.226562 33.820312 48.960938 33.136719 C 49.566406 32.582031 50.066406 31.957031 50.445312 31.285156 C 50.824219 30.609375 51.097656 29.859375 51.253906 29.046875 C 51.644531 27.042969 51.328125 25.4375 50.308594 24.277344 C 49.296875 23.125 47.710938 22.542969 45.59375 22.542969 M 40.78125 31.988281 L 42.816406 31.988281 C 44.167969 31.988281 45.171875 31.738281 45.835938 31.230469 C 46.496094 30.722656 46.941406 29.878906 47.171875 28.695312 C 47.394531 27.558594 47.292969 26.753906 46.871094 26.289062 C 46.445312 25.820312 45.597656 25.585938 44.324219 25.585938 L 42.03125 25.585938 L 40.78125 31.988281 M 45.59375 23.171875 C 47.53125 23.171875 48.945312 23.679688 49.832031 24.691406 C 50.71875 25.703125 50.988281 27.113281 50.632812 28.929688 C 50.488281 29.675781 50.242188 30.359375 49.894531 30.976562 C 49.546875 31.597656 49.089844 32.164062 48.53125 32.675781 C 47.863281 33.296875 47.121094 33.742188 46.300781 34.007812 C 45.484375 34.273438 44.445312 34.402344 43.179688 34.402344 L 40.308594 34.402344 L 39.515625 38.46875 L 36.167969 38.46875 L 39.15625 23.171875 L 45.59375 23.171875 " fill-opacity="1" fill-rule="nonzero"/></svg>