<svg xmlns="http://www.w3.org/2000/svg" xmlns:xlink="http://www.w3.org/1999/xlink" width="80" zoomAndPan="magnify" viewBox="0 0 60 60" height="80" preserveAspectRatio="xMidYMid meet" version="1.0"><defs><clipPath id="d57430897a"><path d="M 0.789062 14.597656 L 59.210938 14.597656 L 59.210938 45.246094 L 0.789062 45.246094 Z M 0.789062 14.597656 " clip-rule="nonzero"/></clipPath><clipPath id="b8a409aae9"><path d="M 0.84375 29.921875 C 0.84375 38.351562 13.898438 45.1875 30 45.1875 C 46.101562 45.1875 59.15625 38.351562 59.15625 29.921875 C 59.15625 21.492188 46.101562 14.65625 30 14.65625 C 13.898438 14.65625 0.84375 21.492188 0.84375 29.921875 " clip-rule="nonzero"/></clipPath><clipPath id="76603619f7"><path d="M 0.84375 29.921875 C 0.84375 38.351562 13.898438 45.1875 30 45.1875 C 46.101562 45.1875 59.15625 38.351562 59.15625 29.921875 C 59.15625 21.492188 46.101562 14.65625 30 14.65625 C 13.898438 14.65625 0.84375 21.492188 0.84375 29.921875 " clip-rule="nonzero"/></clipPath><radialGradient gradientTransform="matrix(1.002356, 0, 0, 0.997644, 18.349243, 20.024042)" gradientUnits="userSpaceOnUse" r="38.196417" cx="0" id="d4d2b9aa12" cy="0" fx="0" fy="0"><stop stop-opacity="1" stop-color="rgb(85.099792%, 85.099792%, 85.099792%)" offset="0"/><stop stop-opacity="1" stop-color="rgb(85.099792%, 85.099792%, 85.099792%)" offset="0.25"/><stop stop-opacity="1" stop-color="rgb(85.054016%, 85.054016%, 85.054016%)" offset="0.296875"/><stop stop-opacity="1" stop-color="rgb(84.780884%, 84.780884%, 84.780884%)" offset="0.300781"/><stop stop-opacity="1" stop-color="rgb(84.327698%, 84.327698%, 84.327698%)" offset="0.304688"/><stop stop-opacity="1" stop-color="rgb(83.874512%, 83.874512%, 83.874512%)" offset="0.308594"/><stop stop-opacity="1" stop-color="rgb(83.421326%, 83.421326%, 83.421326%)" offset="0.3125"/><stop stop-opacity="1" stop-color="rgb(82.96814%, 82.96814%, 82.96814%)" offset="0.316406"/><stop stop-opacity="1" stop-color="rgb(82.514954%, 82.514954%, 82.514954%)" offset="0.320312"/><stop stop-opacity="1" stop-color="rgb(82.063293%, 82.063293%, 82.063293%)" offset="0.324219"/><stop stop-opacity="1" stop-color="rgb(81.610107%, 81.610107%, 81.610107%)" offset="0.328125"/><stop stop-opacity="1" stop-color="rgb(81.156921%, 81.156921%, 81.156921%)" offset="0.332031"/><stop stop-opacity="1" stop-color="rgb(80.703735%, 80.703735%, 80.703735%)" offset="0.335938"/><stop stop-opacity="1" stop-color="rgb(80.250549%, 80.250549%, 80.250549%)" offset="0.339844"/><stop stop-opacity="1" stop-color="rgb(79.797363%, 79.797363%, 79.797363%)" offset="0.34375"/><stop stop-opacity="1" stop-color="rgb(79.344177%, 79.344177%, 79.344177%)" offset="0.347656"/><stop stop-opacity="1" stop-color="rgb(78.890991%, 78.890991%, 78.890991%)" offset="0.351562"/><stop stop-opacity="1" stop-color="rgb(78.437805%, 78.437805%, 78.437805%)" offset="0.355469"/><stop stop-opacity="1" stop-color="rgb(77.984619%, 77.984619%, 77.984619%)" offset="0.359375"/><stop stop-opacity="1" stop-color="rgb(77.531433%, 77.531433%, 77.531433%)" offset="0.363281"/><stop stop-opacity="1" stop-color="rgb(77.078247%, 77.078247%, 77.078247%)" offset="0.367188"/><stop stop-opacity="1" stop-color="rgb(76.625061%, 76.625061%, 76.625061%)" offset="0.371094"/><stop stop-opacity="1" stop-color="rgb(76.171875%, 76.171875%, 76.171875%)" offset="0.375"/><stop stop-opacity="1" stop-color="rgb(75.718689%, 75.718689%, 75.718689%)" offset="0.378906"/><stop stop-opacity="1" stop-color="rgb(75.265503%, 75.265503%, 75.265503%)" offset="0.382812"/><stop stop-opacity="1" stop-color="rgb(74.812317%, 74.812317%, 74.812317%)" offset="0.386719"/><stop stop-opacity="1" stop-color="rgb(74.359131%, 74.359131%, 74.359131%)" offset="0.390625"/><stop stop-opacity="1" stop-color="rgb(73.905945%, 73.905945%, 73.905945%)" offset="0.394531"/><stop stop-opacity="1" stop-color="rgb(73.452759%, 73.452759%, 73.452759%)" offset="0.398438"/><stop stop-opacity="1" stop-color="rgb(72.999573%, 72.999573%, 72.999573%)" offset="0.402344"/><stop stop-opacity="1" stop-color="rgb(72.546387%, 72.546387%, 72.546387%)" offset="0.40625"/><stop stop-opacity="1" stop-color="rgb(72.093201%, 72.093201%, 72.093201%)" offset="0.410156"/><stop stop-opacity="1" stop-color="rgb(71.640015%, 71.640015%, 71.640015%)" offset="0.414062"/><stop stop-opacity="1" stop-color="rgb(71.186829%, 71.186829%, 71.186829%)" offset="0.417969"/><stop stop-opacity="1" stop-color="rgb(70.735168%, 70.735168%, 70.735168%)" offset="0.421875"/><stop stop-opacity="1" stop-color="rgb(70.281982%, 70.281982%, 70.281982%)" offset="0.425781"/><stop stop-opacity="1" stop-color="rgb(69.828796%, 69.828796%, 69.828796%)" offset="0.429688"/><stop stop-opacity="1" stop-color="rgb(69.37561%, 69.37561%, 69.37561%)" offset="0.433594"/><stop stop-opacity="1" stop-color="rgb(68.922424%, 68.922424%, 68.922424%)" offset="0.4375"/><stop stop-opacity="1" stop-color="rgb(68.469238%, 68.469238%, 68.469238%)" offset="0.441406"/><stop stop-opacity="1" stop-color="rgb(68.016052%, 68.016052%, 68.016052%)" offset="0.445312"/><stop stop-opacity="1" stop-color="rgb(67.562866%, 67.562866%, 67.562866%)" offset="0.449219"/><stop stop-opacity="1" stop-color="rgb(67.10968%, 67.10968%, 67.10968%)" offset="0.453125"/><stop stop-opacity="1" stop-color="rgb(66.656494%, 66.656494%, 66.656494%)" offset="0.457031"/><stop stop-opacity="1" stop-color="rgb(66.203308%, 66.203308%, 66.203308%)" offset="0.460938"/><stop stop-opacity="1" stop-color="rgb(65.750122%, 65.750122%, 65.750122%)" offset="0.464844"/><stop stop-opacity="1" stop-color="rgb(65.296936%, 65.296936%, 65.296936%)" offset="0.46875"/><stop stop-opacity="1" stop-color="rgb(64.84375%, 64.84375%, 64.84375%)" offset="0.472656"/><stop stop-opacity="1" stop-color="rgb(64.390564%, 64.390564%, 64.390564%)" offset="0.476562"/><stop stop-opacity="1" stop-color="rgb(63.937378%, 63.937378%, 63.937378%)" offset="0.480469"/><stop stop-opacity="1" stop-color="rgb(63.484192%, 63.484192%, 63.484192%)" offset="0.484375"/><stop stop-opacity="1" stop-color="rgb(63.031006%, 63.031006%, 63.031006%)" offset="0.488281"/><stop stop-opacity="1" stop-color="rgb(62.57782%, 62.57782%, 62.57782%)" offset="0.492188"/><stop stop-opacity="1" stop-color="rgb(62.124634%, 62.124634%, 62.124634%)" offset="0.496094"/><stop stop-opacity="1" stop-color="rgb(61.671448%, 61.671448%, 61.671448%)" offset="0.5"/><stop stop-opacity="1" stop-color="rgb(61.218262%, 61.218262%, 61.218262%)" offset="0.503906"/><stop stop-opacity="1" stop-color="rgb(60.765076%, 60.765076%, 60.765076%)" offset="0.507812"/><stop stop-opacity="1" stop-color="rgb(60.31189%, 60.31189%, 60.31189%)" offset="0.511719"/><stop stop-opacity="1" stop-color="rgb(59.858704%, 59.858704%, 59.858704%)" offset="0.515625"/><stop stop-opacity="1" stop-color="rgb(59.407043%, 59.407043%, 59.407043%)" offset="0.519531"/><stop stop-opacity="1" stop-color="rgb(58.953857%, 58.953857%, 58.953857%)" offset="0.523438"/><stop stop-opacity="1" stop-color="rgb(58.500671%, 58.500671%, 58.500671%)" offset="0.527344"/><stop stop-opacity="1" stop-color="rgb(58.047485%, 58.047485%, 58.047485%)" offset="0.53125"/><stop stop-opacity="1" stop-color="rgb(57.594299%, 57.594299%, 57.594299%)" offset="0.535156"/><stop stop-opacity="1" stop-color="rgb(57.141113%, 57.141113%, 57.141113%)" offset="0.539062"/><stop stop-opacity="1" stop-color="rgb(56.687927%, 56.687927%, 56.687927%)" offset="0.542969"/><stop stop-opacity="1" stop-color="rgb(56.234741%, 56.234741%, 56.234741%)" offset="0.546875"/><stop stop-opacity="1" stop-color="rgb(55.781555%, 55.781555%, 55.781555%)" offset="0.550781"/><stop stop-opacity="1" stop-color="rgb(55.328369%, 55.328369%, 55.328369%)" offset="0.554688"/><stop stop-opacity="1" stop-color="rgb(54.875183%, 54.875183%, 54.875183%)" offset="0.558594"/><stop stop-opacity="1" stop-color="rgb(54.421997%, 54.421997%, 54.421997%)" offset="0.5625"/><stop stop-opacity="1" stop-color="rgb(53.968811%, 53.968811%, 53.968811%)" offset="0.566406"/><stop stop-opacity="1" stop-color="rgb(53.515625%, 53.515625%, 53.515625%)" offset="0.570312"/><stop stop-opacity="1" stop-color="rgb(53.062439%, 53.062439%, 53.062439%)" offset="0.574219"/><stop stop-opacity="1" stop-color="rgb(52.609253%, 52.609253%, 52.609253%)" offset="0.578125"/><stop stop-opacity="1" stop-color="rgb(52.156067%, 52.156067%, 52.156067%)" offset="0.582031"/><stop stop-opacity="1" stop-color="rgb(51.702881%, 51.702881%, 51.702881%)" offset="0.585938"/><stop stop-opacity="1" stop-color="rgb(51.249695%, 51.249695%, 51.249695%)" offset="0.589844"/><stop stop-opacity="1" stop-color="rgb(50.796509%, 50.796509%, 50.796509%)" offset="0.59375"/><stop stop-opacity="1" stop-color="rgb(50.343323%, 50.343323%, 50.343323%)" offset="0.597656"/><stop stop-opacity="1" stop-color="rgb(49.890137%, 49.890137%, 49.890137%)" offset="0.601562"/><stop stop-opacity="1" stop-color="rgb(49.436951%, 49.436951%, 49.436951%)" offset="0.605469"/><stop stop-opacity="1" stop-color="rgb(48.983765%, 48.983765%, 48.983765%)" offset="0.609375"/><stop stop-opacity="1" stop-color="rgb(48.530579%, 48.530579%, 48.530579%)" offset="0.613281"/><stop stop-opacity="1" stop-color="rgb(48.078918%, 48.078918%, 48.078918%)" offset="0.617188"/><stop stop-opacity="1" stop-color="rgb(47.625732%, 47.625732%, 47.625732%)" offset="0.621094"/><stop stop-opacity="1" stop-color="rgb(47.172546%, 47.172546%, 47.172546%)" offset="0.625"/><stop stop-opacity="1" stop-color="rgb(46.71936%, 46.71936%, 46.71936%)" offset="0.628906"/><stop stop-opacity="1" stop-color="rgb(46.266174%, 46.266174%, 46.266174%)" offset="0.632812"/><stop stop-opacity="1" stop-color="rgb(45.812988%, 45.812988%, 45.812988%)" offset="0.636719"/><stop stop-opacity="1" stop-color="rgb(45.359802%, 45.359802%, 45.359802%)" offset="0.640625"/><stop stop-opacity="1" stop-color="rgb(44.906616%, 44.906616%, 44.906616%)" offset="0.644531"/><stop stop-opacity="1" stop-color="rgb(44.45343%, 44.45343%, 44.45343%)" offset="0.648438"/><stop stop-opacity="1" stop-color="rgb(44.000244%, 44.000244%, 44.000244%)" offset="0.652344"/><stop stop-opacity="1" stop-color="rgb(43.547058%, 43.547058%, 43.547058%)" offset="0.65625"/><stop stop-opacity="1" stop-color="rgb(43.093872%, 43.093872%, 43.093872%)" offset="0.660156"/><stop stop-opacity="1" stop-color="rgb(42.640686%, 42.640686%, 42.640686%)" offset="0.664062"/><stop stop-opacity="1" stop-color="rgb(42.1875%, 42.1875%, 42.1875%)" offset="0.667969"/><stop stop-opacity="1" stop-color="rgb(41.734314%, 41.734314%, 41.734314%)" offset="0.671875"/><stop stop-opacity="1" stop-color="rgb(41.281128%, 41.281128%, 41.281128%)" offset="0.675781"/><stop stop-opacity="1" stop-color="rgb(40.827942%, 40.827942%, 40.827942%)" offset="0.679688"/><stop stop-opacity="1" stop-color="rgb(40.374756%, 40.374756%, 40.374756%)" offset="0.683594"/><stop stop-opacity="1" stop-color="rgb(39.92157%, 39.92157%, 39.92157%)" offset="0.6875"/><stop stop-opacity="1" stop-color="rgb(39.468384%, 39.468384%, 39.468384%)" offset="0.691406"/><stop stop-opacity="1" stop-color="rgb(39.015198%, 39.015198%, 39.015198%)" offset="0.695312"/><stop stop-opacity="1" stop-color="rgb(38.562012%, 38.562012%, 38.562012%)" offset="0.699219"/><stop stop-opacity="1" stop-color="rgb(38.108826%, 38.108826%, 38.108826%)" offset="0.703125"/><stop stop-opacity="1" stop-color="rgb(37.65564%, 37.65564%, 37.65564%)" offset="0.707031"/><stop stop-opacity="1" stop-color="rgb(37.202454%, 37.202454%, 37.202454%)" offset="0.710938"/><stop stop-opacity="1" stop-color="rgb(36.750793%, 36.750793%, 36.750793%)" offset="0.714844"/><stop stop-opacity="1" stop-color="rgb(36.297607%, 36.297607%, 36.297607%)" offset="0.71875"/><stop stop-opacity="1" stop-color="rgb(35.844421%, 35.844421%, 35.844421%)" offset="0.722656"/><stop stop-opacity="1" stop-color="rgb(35.391235%, 35.391235%, 35.391235%)" offset="0.726562"/><stop stop-opacity="1" stop-color="rgb(34.938049%, 34.938049%, 34.938049%)" offset="0.730469"/><stop stop-opacity="1" stop-color="rgb(34.484863%, 34.484863%, 34.484863%)" offset="0.734375"/><stop stop-opacity="1" stop-color="rgb(34.031677%, 34.031677%, 34.031677%)" offset="0.738281"/><stop stop-opacity="1" stop-color="rgb(33.578491%, 33.578491%, 33.578491%)" offset="0.742188"/><stop stop-opacity="1" stop-color="rgb(33.125305%, 33.125305%, 33.125305%)" offset="0.746094"/><stop stop-opacity="1" stop-color="rgb(32.899475%, 32.899475%, 32.899475%)" offset="0.75"/><stop stop-opacity="1" stop-color="rgb(32.899475%, 32.899475%, 32.899475%)" offset="1"/></radialGradient></defs><g clip-path="url(#d57430897a)"><g clip-path="url(#b8a409aae9)"><g clip-path="url(#76603619f7)"><path fill="url(#d4d2b9aa12)" d="M 0.84375 14.65625 L 0.84375 45.1875 L 59.15625 45.1875 L 59.15625 14.65625 Z M 0.84375 14.65625 " fill-rule="nonzero"/></g></g></g><path fill="#a6a6a6" d="M 30 44.054688 C 45.472656 44.054688 58.015625 37.726562 58.015625 29.921875 C 58.015625 22.117188 45.472656 15.789062 30 15.789062 C 14.527344 15.789062 1.984375 22.117188 1.984375 29.921875 C 1.984375 37.726562 14.527344 44.054688 30 44.054688 " fill-opacity="1" fill-rule="nonzero"/><path fill="#545454" d="M 16.683594 31.675781 C 17.957031 31.675781 18.90625 31.441406 19.507812 30.980469 C 20.101562 30.523438 20.511719 29.734375 20.726562 28.632812 C 20.929688 27.605469 20.851562 26.886719 20.5 26.5 C 20.140625 26.101562 19.363281 25.902344 18.191406 25.902344 L 16.160156 25.902344 L 15.03125 31.675781 Z M 10.035156 38.785156 C 9.941406 38.785156 9.851562 38.742188 9.789062 38.671875 C 9.730469 38.597656 9.707031 38.503906 9.722656 38.410156 L 12.710938 23.113281 C 12.738281 22.964844 12.871094 22.859375 13.023438 22.859375 L 19.460938 22.859375 C 21.484375 22.859375 22.988281 23.40625 23.9375 24.484375 C 24.886719 25.566406 25.183594 27.082031 24.808594 28.988281 C 24.660156 29.765625 24.398438 30.484375 24.035156 31.128906 C 23.671875 31.777344 23.195312 32.375 22.609375 32.90625 C 21.914062 33.558594 21.125 34.027344 20.265625 34.304688 C 19.421875 34.578125 18.339844 34.71875 17.042969 34.71875 L 14.4375 34.71875 L 13.691406 38.53125 C 13.664062 38.679688 13.535156 38.785156 13.382812 38.785156 Z M 10.035156 38.785156 " fill-opacity="1" fill-rule="nonzero"/><path fill="#ffffff" d="M 16.417969 26.214844 L 18.191406 26.214844 C 19.609375 26.214844 20.097656 26.527344 20.265625 26.710938 C 20.542969 27.015625 20.597656 27.660156 20.417969 28.574219 C 20.21875 29.597656 19.847656 30.324219 19.316406 30.730469 C 18.769531 31.148438 17.886719 31.359375 16.683594 31.359375 L 15.414062 31.359375 Z M 19.460938 22.542969 L 13.023438 22.542969 C 12.71875 22.542969 12.457031 22.757812 12.402344 23.050781 L 9.414062 38.351562 C 9.378906 38.535156 9.425781 38.726562 9.546875 38.871094 C 9.667969 39.015625 9.84375 39.101562 10.035156 39.101562 L 13.382812 39.101562 C 13.683594 39.101562 13.945312 38.886719 14.003906 38.589844 L 14.699219 35.035156 L 17.042969 35.035156 C 18.371094 35.035156 19.488281 34.890625 20.363281 34.605469 C 21.265625 34.3125 22.09375 33.820312 22.828125 33.136719 C 23.433594 32.582031 23.933594 31.957031 24.3125 31.285156 C 24.691406 30.609375 24.960938 29.859375 25.121094 29.046875 C 25.511719 27.042969 25.195312 25.4375 24.175781 24.277344 C 23.164062 23.125 21.578125 22.542969 19.460938 22.542969 M 14.648438 31.988281 L 16.683594 31.988281 C 18.035156 31.988281 19.039062 31.738281 19.699219 31.230469 C 20.363281 30.722656 20.808594 29.878906 21.039062 28.695312 C 21.261719 27.558594 21.160156 26.753906 20.734375 26.289062 C 20.3125 25.820312 19.464844 25.585938 18.191406 25.585938 L 15.898438 25.585938 L 14.648438 31.988281 M 19.460938 23.171875 C 21.398438 23.171875 22.808594 23.679688 23.699219 24.691406 C 24.585938 25.703125 24.855469 27.113281 24.5 28.929688 C 24.355469 29.675781 24.105469 30.359375 23.757812 30.976562 C 23.410156 31.597656 22.957031 32.164062 22.398438 32.675781 C 21.726562 33.296875 20.984375 33.742188 20.167969 34.007812 C 19.351562 34.273438 18.308594 34.402344 17.042969 34.402344 L 14.175781 34.402344 L 13.382812 38.46875 L 10.035156 38.46875 L 13.023438 23.171875 L 19.460938 23.171875 " fill-opacity="1" fill-rule="nonzero"/><path fill="#545454" d="M 32.488281 34.71875 C 32.390625 34.71875 32.304688 34.675781 32.242188 34.605469 C 32.183594 34.53125 32.160156 34.4375 32.175781 34.34375 L 33.496094 27.574219 C 33.625 26.929688 33.59375 26.46875 33.410156 26.273438 C 33.300781 26.15625 32.964844 25.953125 31.976562 25.953125 L 29.582031 25.953125 L 27.921875 34.464844 C 27.890625 34.613281 27.761719 34.71875 27.609375 34.71875 L 24.289062 34.71875 C 24.191406 34.71875 24.105469 34.675781 24.042969 34.605469 C 23.984375 34.53125 23.960938 34.4375 23.976562 34.34375 L 26.964844 19.046875 C 26.992188 18.898438 27.125 18.789062 27.273438 18.789062 L 30.597656 18.789062 C 30.691406 18.789062 30.78125 18.832031 30.839844 18.90625 C 30.902344 18.976562 30.925781 19.074219 30.90625 19.164062 L 30.1875 22.859375 L 32.761719 22.859375 C 34.722656 22.859375 36.054688 23.203125 36.828125 23.910156 C 37.621094 24.632812 37.867188 25.789062 37.5625 27.34375 L 36.171875 34.464844 C 36.144531 34.613281 36.011719 34.71875 35.863281 34.71875 Z M 32.488281 34.71875 " fill-opacity="1" fill-rule="nonzero"/><path fill="#ffffff" d="M 30.597656 18.476562 L 27.273438 18.476562 C 26.972656 18.476562 26.710938 18.691406 26.652344 18.984375 L 23.667969 34.285156 C 23.628906 34.46875 23.679688 34.660156 23.800781 34.804688 C 23.917969 34.949219 24.097656 35.035156 24.289062 35.035156 L 27.609375 35.035156 C 27.914062 35.035156 28.171875 34.820312 28.230469 34.523438 L 29.84375 26.269531 L 31.976562 26.269531 C 32.964844 26.269531 33.171875 26.480469 33.179688 26.488281 C 33.238281 26.550781 33.316406 26.847656 33.1875 27.515625 L 31.867188 34.285156 C 31.828125 34.46875 31.878906 34.660156 32 34.804688 C 32.117188 34.949219 32.296875 35.035156 32.488281 35.035156 L 35.863281 35.035156 C 36.164062 35.035156 36.425781 34.820312 36.484375 34.523438 L 37.871094 27.40625 C 38.199219 25.734375 37.917969 24.480469 37.042969 23.679688 C 36.207031 22.914062 34.808594 22.542969 32.761719 22.542969 L 30.570312 22.542969 L 31.21875 19.226562 C 31.253906 19.042969 31.207031 18.851562 31.085938 18.707031 C 30.964844 18.558594 30.785156 18.476562 30.597656 18.476562 M 30.597656 19.105469 L 29.804688 23.171875 L 32.761719 23.171875 C 34.625 23.171875 35.910156 23.496094 36.617188 24.140625 C 37.320312 24.789062 37.535156 25.835938 37.25 27.285156 L 35.863281 34.402344 L 32.488281 34.402344 L 33.808594 27.636719 C 33.957031 26.863281 33.902344 26.339844 33.640625 26.058594 C 33.382812 25.78125 32.824219 25.640625 31.976562 25.640625 L 29.320312 25.640625 L 27.609375 34.402344 L 24.289062 34.402344 L 27.273438 19.105469 L 30.597656 19.105469 " fill-opacity="1" fill-rule="nonzero"/><path fill="#545454" d="M 42.816406 31.675781 C 44.089844 31.675781 45.039062 31.441406 45.640625 30.980469 C 46.234375 30.523438 46.644531 29.734375 46.863281 28.632812 C 47.0625 27.605469 46.984375 26.886719 46.632812 26.5 C 46.273438 26.101562 45.5 25.902344 44.324219 25.902344 L 42.292969 25.902344 L 41.164062 31.675781 Z M 36.167969 38.785156 C 36.074219 38.785156 35.984375 38.742188 35.921875 38.671875 C 35.863281 38.597656 35.839844 38.503906 35.855469 38.410156 L 38.84375 23.113281 C 38.875 22.964844 39.003906 22.859375 39.15625 22.859375 L 45.59375 22.859375 C 47.617188 22.859375 49.125 23.40625 50.070312 24.484375 C 51.023438 25.566406 51.316406 27.082031 50.945312 28.988281 C 50.792969 29.765625 50.53125 30.484375 50.167969 31.128906 C 49.804688 31.777344 49.328125 32.375 48.746094 32.90625 C 48.046875 33.558594 47.257812 34.027344 46.398438 34.304688 C 45.554688 34.578125 44.472656 34.71875 43.179688 34.71875 L 40.570312 34.71875 L 39.828125 38.53125 C 39.796875 38.679688 39.667969 38.785156 39.515625 38.785156 Z M 36.167969 38.785156 " fill-opacity="1" fill-rule="nonzero"/><path fill="#ffffff" d="M 42.554688 26.214844 L 44.324219 26.214844 C 45.742188 26.214844 46.234375 26.527344 46.398438 26.710938 C 46.675781 27.015625 46.730469 27.660156 46.550781 28.574219 C 46.351562 29.597656 45.980469 30.324219 45.449219 30.730469 C 44.902344 31.148438 44.019531 31.359375 42.816406 31.359375 L 41.550781 31.359375 Z M 45.59375 22.542969 L 39.15625 22.542969 C 38.851562 22.542969 38.59375 22.757812 38.535156 23.050781 L 35.546875 38.351562 C 35.511719 38.535156 35.558594 38.726562 35.679688 38.871094 C 35.800781 39.015625 35.980469 39.101562 36.167969 39.101562 L 39.515625 39.101562 C 39.820312 39.101562 40.078125 38.886719 40.136719 38.589844 L 40.832031 35.035156 L 43.179688 35.035156 C 44.503906 35.035156 45.621094 34.890625 46.496094 34.605469 C 47.398438 34.3125 48.226562 33.820312 48.960938 33.136719 C 49.566406 32.582031 50.066406 31.957031 50.445312 31.285156 C 50.824219 30.609375 51.097656 29.859375 51.253906 29.046875 C 51.644531 27.042969 51.328125 25.4375 50.308594 24.277344 C 49.296875 23.125 47.710938 22.542969 45.59375 22.542969 M 40.78125 31.988281 L 42.816406 31.988281 C 44.167969 31.988281 45.171875 31.738281 45.835938 31.230469 C 46.496094 30.722656 46.941406 29.878906 47.171875 28.695312 C 47.394531 27.558594 47.292969 26.753906 46.871094 26.289062 C 46.445312 25.820312 45.597656 25.585938 44.324219 25.585938 L 42.03125 25.585938 L 40.78125 31.988281 M 45.59375 23.171875 C 47.53125 23.171875 48.945312 23.679688 49.832031 24.691406 C 50.71875 25.703125 50.988281 27.113281 50.632812 28.929688 C 50.488281 29.675781 50.242188 30.359375 49.894531 30.976562 C 49.546875 31.597656 49.089844 32.164062 48.53125 32.675781 C 47.863281 33.296875 47.121094 33.742188 46.300781 34.007812 C 45.484375 34.273438 44.445312 34.402344 43.179688 34.402344 L 40.308594 34.402344 L 39.515625 38.46875 L 36.167969 38.46875 L 39.15625 23.171875 L 45.59375 23.171875 " fill-opacity="1" fill-rule="nonzero"/></svg>